<?xml version="1.0" encoding="UTF-8" standalone="no"?>
<!-- Created with Inkscape (http://www.inkscape.org/) -->
<svg id="svg2" xmlns:rdf="http://www.w3.org/1999/02/22-rdf-syntax-ns#" xmlns="http://www.w3.org/2000/svg" height="297mm" width="210mm" version="1.1" xmlns:cc="http://creativecommons.org/ns#" xmlns:xlink="http://www.w3.org/1999/xlink" viewBox="0 0 744.09448819 1052.3622047" xmlns:dc="http://purl.org/dc/elements/1.1/">
 <title id="title3365">Title</title>
 <metadata id="metadata7">
  <rdf:RDF>
   <cc:Work rdf:about="">
    <dc:format>image/svg+xml</dc:format>
    <dc:type rdf:resource="http://purl.org/dc/dcmitype/StillImage"/>
    <dc:title>Title</dc:title>
   </cc:Work>
  </rdf:RDF>
 </metadata>
 <g id="layer1">
  <image id="image3344" style="image-rendering:optimizeSpeed" width="200" xlink:href="file:///C:/Users/kairat/Desktop/25214128.png" height="200" y="432.36" x="275" preserveAspectRatio="none"/>
  <g id="g3347" transform="matrix(3.6857 0 0 5.2571 -1010 -2274.9)">
   <path id="path3363" fill="#fbfaf9" d="m275 532.36v-100h100 100v100 100h-100-100v-100z"/>
   <path id="path3361" fill="#eac82d" d="m355.15 624.96c-4.0417-1.3458-9.7723-4.0562-12.735-6.0231-2.9623-1.9669-5.9682-3.5761-6.6797-3.5761-2.4873 0-15.29-6.7713-21.488-11.365-10.309-7.6406-17.317-18.845-20.295-32.451-0.56398-2.5766-1.9021-6.5771-2.9737-8.89-8.7007-18.78-7.9113-40.808 2.0128-56.162 2.2039-3.4099 4.0071-6.8724 4.0071-7.6945 0-1.9613 5.4519-12.741 9.3255-18.438 7.2568-10.673 20.07-19.415 32.408-22.108 3.1715-0.69243 6.6663-1.8047 7.7663-2.4717 1.1-0.66701 5.6-2.4737 10-4.015 7.0262-2.4611 9.4606-2.8051 20-2.8256 13.602-0.0265 19.734 1.6366 29.195 7.9189 2.9006 1.9259 5.8103 3.5016 6.4661 3.5016 2.5361 0 17.574 8.0775 22.138 11.891 10.159 8.4896 18.046 21.052 19.395 30.895 0.35167 2.5657 1.4138 6.0258 2.3602 7.6892 0.94646 1.6634 2.7839 6.1744 4.0832 10.024 2.0208 5.9879 2.3623 8.9519 2.3623 20.5 0 13.137-0.0868 13.683-3.2273 20.314-1.775 3.7476-4.2371 8.2319-5.4714 9.9652-1.2342 1.7333-2.3785 4.0325-2.5428 5.1092-0.58526 3.835-7.5648 16.218-12.826 22.756-6.3988 7.9512-15.393 14.137-24.54 16.877-3.6343 1.0887-7.2623 1.9794-8.0622 1.9794s-3.4514 0.9704-5.8922 2.1564c-8.4362 4.0994-16.218 5.9563-26.938 6.4279-9.227 0.4059-11.391 0.16523-17.849-1.9851zm41.578-9.2034c-0.3323-0.33229-1.1948-0.36781-1.9167-0.0789-0.79773 0.31922-0.56078 0.55618 0.60417 0.60416 1.0542 0.0434 1.6448-0.19293 1.3125-0.52522zm-61.771-8.1272c-2.452-2.6023-4.5707-4.9273-4.7082-5.1667s-0.25 0.00092-0.25 0.53405c0 1.0142 7.904 9.364 8.864 9.364 0.30382 0-1.4538-2.1291-3.9058-4.7314zm57.54 2.65c-2.75-0.47473-7.9976-1.3581-11.661-1.9632-6.3976-1.0564-10.995-3.1273-9.7361-4.3859 0.32965-0.32965 3.8459 0.0836 7.8138 0.91824 3.9679 0.83468 9.3225 1.4563 11.899 1.3814s3.5596-0.30044 2.1846-0.5012c-5.8911-0.86015-13.64-2.6657-15.385-3.5847-2.9929-1.5763-0.10133-2.6051 4.7059-1.6742 6.7398 1.305 17.262 1.015 24.721-0.68132 7.9397-1.8058 10.704-3.9566 3.7441-2.9129-4.49 0.66-12.79-0.9-12.79-2.42 0-0.45285 3.0375-1.131 6.75-1.5071 8.5826-0.86937 18.455-3.3493 19.75-4.9613 0.55-0.68447 3.475-3.0829 6.5-5.3298s7.3-6.02 9.5-8.3845l4-4.2992-5.5 4.85c-6.3224 5.5753-16.678 12.532-18.655 12.532-2.773 0-1.1428-1.8976 5.4848-6.3848 3.7564-2.5432 7.9189-5.8325 9.25-7.3095 2.0681-2.2948 1.6928-2.1675-2.5798 0.875-10.418 7.4185-17.268 9.0336-8.5 2.0043 10.693-8.5728 18.523-18.193 20.499-25.185 0.60974-2.1572 0.34613-2.0228-1.9228 0.9804-2.5041 3.3146-9.9214 9.0196-11.727 9.0196-1.566 0-0.87118-1.6311 1.7363-4.0757 1.4222-1.3334 4.6718-5.5596 7.2212-9.3916 4.9816-7.4877 5.6158-10.039 6.5948-26.533l0.50453-8.5-0.9427 7.5c-1.4132 11.243-2.8774 17.523-4.5745 19.618-1.4039 1.7338-1.4783 1.5281-0.94726-2.6185 0.31697-2.475 0.782-7.65 1.0334-11.5l0.4571-7-0.9728 5.5c-1.1352 6.4184-2.835 11-4.081 11-1.0794 0-1.0646-1.5703 0.0986-10.5 1.0936-8.3951-0.30534-20.31-2.989-25.456l-1.8478-3.5438 0.55479 5.6061c0.53823 5.4388-0.98187 12.894-2.6291 12.894-0.42827 0-1.0735-3.5357-1.4339-7.8572-0.72267-8.6655-3.1189-18.091-4.994-19.643-0.6644-0.55-3.2798-3.7-5.812-7s-5.8484-7.125-7.3694-8.5 0.0205 1.0377 3.4255 5.3616c5.3719 6.8216 10.118 14.373 10.118 16.099 0 2.0507-2.711-0.69114-8.468-8.5643-3.6614-5.0073-6.9099-8.8513-7.219-8.5422-0.30906 0.30906 0.64058 1.991 2.1103 3.7377 2.433 2.8915 6.5766 10.054 6.5766 11.369 0 0.29691-0.5625 0.52174-1.25 0.49963-0.6875-0.0221-3.275-2.7832-5.75-6.1356-4.7728-6.4649-11.906-12.715-18.141-15.896-5.8623-2.9907-5.8917-2.3611-0.16571 3.5506 2.9975 3.0948 5.3066 6.3959 5.3066 7.5866 0 1.8161-0.84739 1.3997-6.1239-3.0092-7.7514-6.477-14.396-10.383-18.315-10.768-1.6836-0.16536-7.336-0.49616-12.561-0.73512-9.4163-0.43064-9.4328-0.42732-1.8768 0.37628 12.576 1.3375 20.795 3.7836 18.143 5.4-0.42147 0.25693-4.1413-0.1383-8.2663-0.87829-4.125-0.74-9.075-1.3169-11-1.282-3.6041 0.0653-3.1112 0.23428 5.6185 1.9264 2.8152 0.54568 5.9652 1.664 7 2.4851 1.6879 1.3393 0.80107 1.4279-8.6185 0.86044-10.979-0.66136-21.325 0.57496-25.972 3.1036-2.3497 1.2786-2.0296 1.3786 4.5305 1.4158 4.6043 0.0261 7.7339 0.55058 9 1.5082 1.0676 0.80751 1.7161 1.4905 1.4411 1.5178-12.424 1.2317-18.283 2.1154-21.586 3.2561-4.3868 1.5148-15.704 10.142-21.414 16.323-2.6482 2.8669-1.6748 2.3164 4-2.2621 7.9569-6.4197 15.293-11.303 16.98-11.303 2.3388 0 0.61061 1.8629-6.339 6.8331-4.0474 2.8946-8.6599 6.6727-10.25 8.3959l-2.8911 3.133 3-2.2049c8.8055-6.4716 11.454-8.0965 14.096-8.6489 2.7546-0.57575 2.6727-0.41198-1.5965 3.1924-11.34 9.5739-18.44 18.266-20.465 25.052-0.48005 1.609 0.90102 0.67992 4.831-3.25 3.2466-3.2466 6.3818-5.5032 7.6459-5.5032 1.8945 0 1.6389 0.57602-2.2063 4.9716-6.2189 7.1091-10.954 15.353-11.341 19.743-0.18332 2.0817-0.54201 8.51-0.79709 14.285s-0.28498 8.475-0.0664 6c0.78855-8.9307 3.582-22.867 4.9438-24.664 1.3206-1.7427 1.3928-1.7217 1.423 0.41369 0.0175 1.2372-0.67177 6.3265-1.5317 11.31-0.85992 4.983-1.3654 9.5957-1.1233 10.25 0.44642 1.2073 0.64571 0.50079 2.626-9.3095 2.4128-11.953 4.7389-10.657 3.0095 1.6763-1.3887 9.904-0.30842 19.617 2.9834 26.824l1.827 4-0.50523-6.1042c-0.49827-6.0202 1.1301-13.895 2.6758-12.939 0.4227 0.26125 1.0437 3.9779 1.3799 8.2592 0.33627 4.2813 1.2461 9.8753 2.0219 12.431 1.5188 5.0036 11.574 18.306 17.609 23.296l3.5592 2.9426-3.6298-3.9426c-8.3518-9.0715-16.25-21.472-13.641-21.415 0.69867 0.0152 3.0703 2.7281 5.2703 6.0288 2.2 3.3006 5.7532 7.6757 7.8961 9.7224l3.8961 3.7212-4.0297-5.5c-4.8494-6.6188-7.6498-11.947-6.75-12.843 0.36299-0.36139 2.0805 1.1429 3.8166 3.3429 8.7707 11.114 18.178 18.832 25.657 21.048 1.8611 0.55153 1.0563-0.57019-3.1999-4.4602-5.2693-4.8158-7.7054-8.5023-6.4489-9.7588 0.28613-0.28613 3.1716 1.6863 6.4122 4.3831 9.6856 8.0604 12.813 9.5892 22.204 10.853 4.7004 0.63245 10.571 1.1637 13.046 1.1807l4.5 0.0308-5-0.86313zm-62.485-35.663c0.008-0.4125 0.36139-1.2946 0.78437-1.9601 0.55483-0.87303 1.11-0.66411 1.9932 0.75 1.0632 1.7025 0.96016 1.9601-0.78437 1.9601-1.1047 0-2.0016-0.3375-1.9932-0.75zm6.9398-2.5c-0.10656-7.7113-1.2372-17.296-2.1041-17.837-0.54851-0.34223-0.6538-3.3814-0.25275-7.2958 0.55114-5.3795 1.0028-6.6485 2.279-6.4027 1.2633 0.24329 1.9442 3.1919 3.3012 14.296 0.94027 7.6941 1.9315 15.452 2.2028 17.239 0.46145 3.0409 0.30423 3.25-2.444 3.25-2.6378 0-2.9417-0.33121-2.982-3.25zm8.5449-14.75c0-18 0-18 2.25-18s2.25 0 2.25 18 0 18-2.25 18-2.25 0-2.25-18zm8 0c0-18 0-18 2.25-18s2.25 0 2.25 18 0 18-2.25 18-2.25 0-2.25-18zm7.3056 4.9982c-0.30338-12.908-0.2893-13.002 1.9444-13 2.2019 0.002 2.25 0.24604 2.25 11.42 0 6.28 0.27314 12.13 0.60699 13 0.45575 1.1877-0.0287 1.5818-1.9444 1.5818h-2.5514l-0.3056-13.002zm7.8956 12.37c-0.39-0.4-0.71-3.51-0.71-6.94 0-4.7551 0.37376-6.3698 1.5818-6.8333 2.7824-1.0677 2.9208-0.73547 2.7682 6.6425-0.1101 5.3194-0.5226 7.3263-1.5488 7.5351-0.76928 0.15651-1.7142-0.031-2.0999-0.41667zm6.29-0.65c-1.1982-0.98456-1.4542-3.4958-1.2724-12.483 0.1766-8.7281-0.0663-11.25-1.0833-11.25-2.2414 0-2.6904 1.2458-0.91649 2.5429 1.4048 1.0272 1.4756 1.5071 0.41134 2.7894-1.57 1.9-4.14 1.1-4.14-1.28 0-4.3382 7.9288-6.9181 9.9062-3.2233 0.5371 1.0036 1.0617 6.7411 1.1658 12.75 0.1974 11.392-0.48818 13.103-4.072 10.158zm5.6184-0.28446c-0.36015-0.93854-0.18098-1.2957 0.45332-0.90371 0.71593 0.44247 0.95036-3.1722 0.73855-11.388l-0.31-12.04 4.8068 0.11139c3.489 0.0809 5.0654 0.59458 5.75 1.8738 0.51876 0.96931 0.9432 6.742 0.9432 12.828v11.066h-2.5-2.5v-12.059c0-7.7847-0.35445-11.84-1-11.441-0.57238 0.35375-1 5.5104-1 12.059 0 11.401-0.008 11.441-2.393 11.441-1.3162 0-2.661-0.69837-2.9886-1.5519zm16.787-0.55577c-1.58-1.73-1.91-3.65-1.91-10.97 0-7.7596 0.27024-9.1354 2.1667-11.031 1.5284-1.5278 2.7068-1.9309 4-1.3682 1.0083 0.43874 2.1708 0.72627 2.5833 0.63895 0.4125-0.0873 0.71379 1.9787 0.66952 4.5912l-0.0805 4.75-1.1695-4.5c-0.73122-2.8136-1.7317-4.5-2.6695-4.5-1.222 0-1.5468 1.9457-1.7528 10.5-0.28096 11.667 0.4646 14.264 3.4266 11.936 1.6719-1.3144 1.7102-1.2878 0.45378 0.3143-1.8102 2.3081-3.4031 2.2086-5.7226-0.35771zm12.036 0.68832c-1.69-1.23-1.95-2.67-1.95-10.89 0-7.9148 0.3138-9.8224 1.905-11.581 1.0477-1.1578 2.7237-2.105 3.7243-2.105 2.3443 0 4.8707 4.9018 4.8707 9.4503 0 3.3901-0.15734 3.5497-3.5 3.5497h-3.5v5.441c0 8.4916 3.2756 8.6454 5.7376 0.26944l1.2376-4.2104-0.44482 3.874c-0.44994 3.9186-2.8779 7.626-4.9942 7.626-0.63463 0-2.0274-0.63872-3.095-1.4194zm4.55-16.5c0-2.155-0.27215-4.6274-0.60478-5.4943-1.12-2.91-2.4-0.52-2.4 4.47 0 3.7253 0.36906 4.941 1.5 4.941 1.0781 0 1.5-1.102 1.5-3.9182zm-9.8421 11.918c0-1.375 0.22698-1.9375 0.50439-1.25s0.27741 1.8125 0 2.5-0.50439 0.125-0.50439-1.25zm-72.143-2.25c0.0104-2.2096 0.29129-2.8144 0.87743-1.8893 0.78629 1.241 0.39992 5.1393-0.50937 5.1393-0.21085 0-0.37648-1.4625-0.36806-3.25zm1.1796-7.25c0.0204-1.65 0.2445-2.2039 0.49804-1.231 0.25354 0.97297 0.23687 2.323-0.0371 3-0.27393 0.67703-0.48137-0.11903-0.46099-1.769zm28.18-16.95c-0.69661-1.8154 0.31521-3.5479 2.072-3.5479 1.516 0 2.84 2.7184 1.9922 4.0902-0.87407 1.4143-3.4451 1.0712-4.0642-0.54235zm-28.255-27.175c0.11931-7.5289 0.15722-7.6512 0.86895-2.8016 0.93522 6.3724 2.6447 9.6438 4.8238 9.2312 3.207-0.60711 2.5725-6.1753-1.7562-15.412-4.1919-8.9453-4.9908-13.736-2.7919-16.743 1.2108-1.6559 2.397-1.8812 7.4807-1.4213 2.0722 0.18746 2.2438 0.68065 2.171 6.2393-0.0831 6.3531-0.35943 6.4168-1.3784 0.31786-0.65566-3.9243-3.0768-7.1881-4.6232-6.2323-1.8648 1.1525-0.7953 6.1692 3.0806 14.45 4.3364 9.2648 5.1813 15.676 2.4286 18.429-1.7834 1.7834-5.9844 2.099-6.9586 0.52287-0.44301-0.7168-1.0945-0.67806-2.059 0.12245-1.1959 0.99247-1.392-0.0292-1.2862-6.7014zm15.781 5.4518c-2.97-5.56-1.67-21.43 1.85-22.58 0.95365-0.31269 1.25 2.4549 1.25 11.673 0 10.005 0.25472 12.083 1.481 12.083 0.81452 0 1.7539-1.2375 2.0875-2.75 0.96261-4.3645 1.2681-4.9143 1.3526-2.4343 0.19571 5.7405-5.5503 8.6141-8.0151 4.0085zm10.6-10.33c0-12.2 0.0527-12.5 2.1928-12.5 2.1238 0 2.2025 0.39356 2.5 12.502l0.30715 12.502-2.5-0.002-2.5-0.002v-12.5zm9.0567 10.277c-2.1684-3.0959-2.1684-17.459 0-20.555 1.9287-2.7536 6.0038-2.9122 7.4081-0.28825 0.56935 1.0638 1.0352 3.9888 1.0352 6.5 0 4.4064-0.10471 4.5657-3 4.5657-2.9697 0-3 0.0556-3 5.5 0 5.6926 1.0881 6.8482 4.0018 4.25 1.1925-1.0634 1.2041-0.98877 0.0776 0.5-1.8162 2.4002-4.6545 2.1946-6.5226-0.47251zm4.44-16.28c0-3.025-0.45-5.5-1-5.5s-1 2.475-1 5.5 0.45 5.5 1 5.5 1-2.475 1-5.5zm6.5 6.0714v-12.429h5.152c6.2563 0 6.315 0.1355 6.3343 14.607l0.0136 10.25h-2.5-2.5v-11.5c0-7.4376-0.37463-11.5-1.0605-11.5-0.70392 0-0.95612 3.8677-0.75 11.502l0.31054 11.502-2.5-0.002-2.5-0.002v-12.429zm15.372 10.775c-0.94-1.13-1.37-4.52-1.37-10.84 0-8.8218 1.0659-12.5 3.6224-12.5 0.48266 0 0.87756 5.3625 0.87756 11.917 0 8.5977 0.34815 12.057 1.25 12.421 0.6875 0.27741 0.2926 0.53991-0.87756 0.58333-1.1702 0.0434-2.7452-0.66521-3.5-1.5747zm11.69-0.56c-1.1-1.57-1.56-4.61-1.56-10.28 0-9.0532 1.5225-12.5 5.5215-12.5 3.0744 0 4.4785 2.6442 4.4785 8.4343 0 4.4064-0.10471 4.5657-3 4.5657-2.9745 0-3 0.0474-3 5.5733 0 4.7691 0.25253 5.5249 1.75 5.2378 0.9625-0.18452 2.2871-1.905 2.9436-3.8233 0.76726-2.2421 1.2137-2.7637 1.25-1.4603 0.0791 2.8417-2.694 6.4725-4.9436 6.4725-1.0376 0-2.5871-1.0001-3.4433-2.2225zm4.44-16.28c0-3.025-0.45-5.5-1-5.5s-1 2.475-1 5.5 0.45 5.5 1 5.5 1-2.475 1-5.5zm-34.805 12c0.0204-1.65 0.2445-2.2039 0.49804-1.231 0.25354 0.97297 0.23687 2.323-0.037 3-0.27398 0.67703-0.48142-0.11903-0.46104-1.769zm26.057-1c0.0111-2.2 0.21589-2.9822 0.45508-1.7383s0.23011 3.0439-0.0202 4c-0.25029 0.95609-0.446-0.0617-0.4349-2.2617zm-0.25834-9.75c-0.003-1.2375-0.60167-3.3911-1.3295-4.7857-1.186-2.2725-1.1335-2.5357 0.50616-2.5357 1.5178 0 1.8295 0.81531 1.8295 4.7857 0 2.6321-0.225 4.7857-0.5 4.7857s-0.50277-1.0125-0.50616-2.25zm-46.337-2.4762c-0.33257-2.0494-0.16645-4.1644 0.36916-4.7 0.63177-0.63177 0.97383 0.67703 0.97383 3.7262 0 5.6574-0.52158 6.0356-1.343 0.97383zm4.0786-11.872c-1.1193-1.1193 0.47193-3.4022 2.3714-3.4022 1.2263 0 1.893 0.70434 1.893 2 0 1.9067-2.8295 2.8371-4.2644 1.4022zm84.76 85.6c2.1482-2.2 3.6809-4 3.4059-4s-2.2577 1.8-4.4059 4-3.6809 4-3.4059 4 2.2577-1.8 4.4059-4zm-147.78-20.23c-0.22256-1.7974-0.40925-0.56791-0.41486 2.7321-0.006 3.3 0.17648 4.7706 0.40466 3.2679 0.22817-1.5026 0.23276-4.2026 0.0102-6zm154.99-42.504c-0.22985-1.5201-0.42406-0.51375-0.43157 2.2362-0.007 2.75 0.18056 3.9937 0.41792 2.7638s0.24351-3.4799 0.0136-5zm-140.71-22.03c0-0.80963-5.6556 3.7457-8.5 6.8463-1.9265 2.1-0.94246 1.5278 2.75-1.5994 3.1625-2.6783 5.75-5.0394 5.75-5.247zm106-21.545c0-0.16711-1.6875-1.8546-3.75-3.75l-3.75-3.4462 3.4462 3.75c3.2 3.49 4.05 4.21 4.05 3.45zm-61.238-10.383c-0.95609-0.25029-2.7561-0.25937-4-0.0202-1.2439 0.23919-0.46166 0.44398 1.7383 0.45508s3.2178-0.18461 2.2617-0.4349z"/>
   <path id="path3359" fill="#a0b83a" d="m355.15 624.96c-4.0417-1.3458-9.7723-4.0562-12.735-6.0231-2.9623-1.9669-5.9682-3.5761-6.6797-3.5761-2.4873 0-15.29-6.7713-21.488-11.365-10.309-7.6406-17.317-18.845-20.295-32.451-0.56398-2.5766-1.9021-6.5771-2.9737-8.89-6.1255-13.221-7.7289-30.707-3.9725-43.32 2.4155-8.1109 10.186-20.375 15.651-24.704 5.3016-4.199 9.5543-6.1318 10.072-4.5779 0.26675 0.80025 1.4644 0.53487 3.7969-0.84135 1.874-1.1057 4.2026-1.8572 5.1747-1.6699 1.2982 0.25001 0.17848 1.573-4.2175 4.9832-3.2917 2.5535-7.7849 6.5641-9.9849 8.9125-3.5366 3.775-3.1311 3.5691 3.5-1.7777 7.9613-6.4193 15.295-11.299 16.98-11.299 2.3388 0 0.61061 1.8629-6.339 6.8331-4.0474 2.8946-8.6599 6.6727-10.25 8.3959l-2.8911 3.133 3-2.2049c8.8055-6.4716 11.454-8.0965 14.096-8.6489 2.7546-0.57575 2.6727-0.41198-1.5965 3.1924-11.34 9.5739-18.44 18.266-20.465 25.052-0.48005 1.609 0.90102 0.67992 4.831-3.25 3.2466-3.2466 6.3818-5.5032 7.6459-5.5032 1.8945 0 1.6389 0.57602-2.2063 4.9716-6.2189 7.1091-10.954 15.353-11.341 19.743-0.18332 2.0817-0.54201 8.51-0.79709 14.285s-0.28498 8.475-0.0664 6c0.78855-8.9307 3.582-22.867 4.9438-24.664 1.3206-1.7427 1.3928-1.7217 1.423 0.41369 0.0175 1.2372-0.67177 6.3265-1.5317 11.31-0.85992 4.983-1.3654 9.5957-1.1233 10.25 0.44642 1.2073 0.64571 0.50079 2.626-9.3095 2.4128-11.953 4.7389-10.657 3.0095 1.6763-1.3887 9.904-0.30842 19.617 2.9834 26.824l1.827 4-0.50523-6.1042c-0.49827-6.0202 1.1301-13.895 2.6758-12.939 0.4227 0.26125 1.0437 3.9779 1.3799 8.2592 0.33627 4.2813 1.2461 9.8753 2.0219 12.431 1.5445 5.0883 11.473 18.129 18.124 23.804l4.044 3.4508-4.1314-4.4508c-8.7239-9.3984-16.839-21.982-14.139-21.923 0.69867 0.0152 3.0703 2.727 5.2703 6.0262 2.2 3.2993 5.9763 7.8994 8.3918 10.222l4.3918 4.2238-4.2137-5.4307c-4.8696-6.2761-8.5032-12.971-7.5534-13.916 0.36081-0.3592 2.0765 1.1469 3.8126 3.3469 8.7707 11.114 18.178 18.832 25.657 21.048 1.8611 0.55153 1.0563-0.57019-3.1999-4.4602-5.2693-4.8158-7.7054-8.5023-6.4489-9.7588 0.28613-0.28613 3.1716 1.6863 6.4122 4.3831 9.8865 8.2276 12.604 9.5086 23.148 10.913 5.281 0.70315 11.177 1.2499 13.102 1.215 3.7397-0.0678 3.1699-0.19287-13.161-2.8897-6.2117-1.0258-11.001-3.1207-9.8246-4.2974 0.28097-0.28097 3.8803 0.13171 7.9984 0.91706 4.1182 0.78535 9.5126 1.3672 11.988 1.2929 2.475-0.0743 3.375-0.29926 2-0.50002-5.8911-0.86015-13.64-2.6657-15.385-3.5847-2.9929-1.5763-0.10133-2.6051 4.7059-1.6742 6.7398 1.305 17.262 1.015 24.721-0.68132 7.9397-1.8058 10.704-3.9566 3.7441-2.9129-4.48 0.67-12.78-0.89-12.78-2.41 0-0.45285 3.0375-1.131 6.75-1.5071 8.5826-0.86937 18.455-3.3493 19.75-4.9613 0.55-0.68447 3.475-3.0829 6.5-5.3298s7.3-6.02 9.5-8.3845l4-4.2992-5.5 4.85c-6.3224 5.5753-16.678 12.532-18.655 12.532-2.773 0-1.1428-1.8976 5.4848-6.3848 3.7564-2.5432 7.9189-5.8325 9.25-7.3095 2.0681-2.2948 1.6928-2.1675-2.5798 0.875-10.418 7.4185-17.268 9.0336-8.5 2.0043 10.693-8.5728 18.523-18.193 20.499-25.185 0.60974-2.1572 0.34613-2.0228-1.9228 0.9804-2.5041 3.3146-9.9214 9.0196-11.727 9.0196-1.566 0-0.87118-1.6311 1.7363-4.0757 1.4222-1.3334 4.651-5.5283 7.175-9.322 3.5675-5.3621 4.8724-8.4788 5.8616-14 1.4461-8.0719 1.6637-23.11 0.37763-26.102-0.56378-1.312-0.88361 1.2909-0.92971 7.5663-0.0791 10.761-1.5458 20.192-3.7215 23.927l-1.4597 2.5064 0.46131-3c0.25372-1.65 1.0098-6.453 1.6803-10.673 0.7835-4.9321 0.92505-9.7548 0.39626-13.5l-0.82269-5.8268-0.67823 9.5c-0.6013 8.4226-3.1448 18.115-4.4194 16.84-0.2569-0.25689 0.0553-4.3717 0.69389-9.1441 1.3609-10.171 0.0745-21.276-3.2107-27.716-2.1623-4.2384-3.5518-5.3259-2.4766-1.9384 0.98561 3.1054 0.71939 13.721-0.39384 15.704-1.3223 2.3554-1.7924 0.80534-2.5009-8.2456-0.66437-8.4874-2.1786-14.06-4.4334-16.315-0.92679-0.92703-3.7726-4.3853-6.324-7.6851s-5.8833-7.1246-7.4043-8.4996 0.0205 1.0377 3.4255 5.3616c5.3719 6.8216 10.118 14.373 10.118 16.099 0 2.0507-2.711-0.69114-8.468-8.5643-3.6614-5.0073-6.9099-8.8513-7.219-8.5422-0.30906 0.30906 0.64058 1.991 2.1103 3.7377 2.433 2.8915 6.5766 10.054 6.5766 11.369 0 0.29691-0.5625 0.52174-1.25 0.49963-0.6875-0.0221-3.275-2.7832-5.75-6.1356-4.7728-6.4649-11.906-12.715-18.141-15.896-5.8623-2.9907-5.8917-2.3611-0.16571 3.5506 2.9799 3.0766 5.3066 6.3982 5.3066 7.5757 0 1.7804-1.0192 1.2469-6.75-3.5331-6.8136-5.6832-20.018-12.805-25.989-14.018-3.9194-0.79584-5.277-2.4791-2.0705-2.5671l2.309-0.0634-2.4076-0.96269c-1.3242-0.52948-5.7338-1.2439-9.7991-1.5875-4.0964-0.34628-7.0101-1.0063-6.5359-1.4805 0.47061-0.47061 4.8802-2.2944 9.7991-4.0529 8.1544-2.9152 10.002-3.1989 20.943-3.2154 13.41-0.0202 19.331 1.5422 28.749 7.5855 2.7787 1.7831 8.2469 4.632 12.152 6.3308 19.566 8.513 32.33 22.842 35.805 40.196 0.64033 3.1975 1.7166 6.3689 2.3918 7.0476 0.67518 0.67868 2.5044 4.9537 4.0651 9.5 2.5683 7.4819 2.8375 9.5467 2.8375 21.766 0 13.137-0.0868 13.683-3.2273 20.314-1.775 3.7476-4.2371 8.2319-5.4714 9.9652-1.2342 1.7333-2.3785 4.0325-2.5428 5.1092-0.58526 3.835-7.5648 16.218-12.826 22.756-6.3988 7.9512-15.393 14.137-24.54 16.877-3.6343 1.0887-7.2623 1.9794-8.0622 1.9794s-3.4514 0.9704-5.8922 2.1564c-8.4362 4.0994-16.218 5.9563-26.938 6.4279-9.227 0.4059-11.391 0.16523-17.849-1.9851zm41.578-9.2034c-0.3323-0.33229-1.1948-0.36781-1.9167-0.0789-0.79773 0.31922-0.56078 0.55618 0.60417 0.60416 1.0542 0.0434 1.6448-0.19293 1.3125-0.52522zm-6-1c-0.3323-0.33229-1.1948-0.36781-1.9167-0.0789-0.79773 0.31922-0.56078 0.55618 0.60417 0.60416 1.0542 0.0434 1.6448-0.19293 1.3125-0.52522zm-55.267-6.6247c-2.7293-2.8759-5.0749-5.4259-5.2124-5.6667-0.1375-0.24079-0.25 0.0131-0.25 0.5641 0 1.0758 8.7896 10.331 9.8113 10.331 0.33744 0-1.6196-2.353-4.3489-5.2289zm109.04-30.78c2.1482-2.2 3.6809-4 3.4059-4s-2.2577 1.8-4.4059 4-3.6809 4-3.4059 4 2.2577-1.8 4.4059-4zm-147.78-20.23c-0.22256-1.7974-0.40925-0.56791-0.41486 2.7321-0.006 3.3 0.17648 4.7706 0.40466 3.2679 0.22817-1.5026 0.23276-4.2026 0.0102-6zm155.19-42.27c-0.0302-3.3-0.44171-6.9-0.9144-8-0.56327-1.3108-0.87837 1.2737-0.9144 7.5-0.0375 6.4806 0.25312 9.0232 0.9144 8 0.53316-0.825 0.94464-4.2 0.9144-7.5zm-140.91-22.26c0-0.80963-5.6556 3.7457-8.5 6.8463-1.9265 2.1-0.94246 1.5278 2.75-1.5994 3.1625-2.6783 5.75-5.0394 5.75-5.247zm106-21.545c0-0.16711-1.6875-1.8546-3.75-3.75l-3.75-3.4462 3.4462 3.75c3.2 3.49 4.05 4.21 4.05 3.45zm-86.985 103.55c0.008-0.4125 0.36139-1.2946 0.78437-1.9601 0.55483-0.87303 1.11-0.66411 1.9932 0.75 1.0632 1.7025 0.96016 1.9601-0.78437 1.9601-1.1047 0-2.0016-0.3375-1.9932-0.75zm6.9398-2.5c-0.10656-7.7113-1.2372-17.296-2.1041-17.837-0.54851-0.34223-0.6538-3.3814-0.25275-7.2958 0.55114-5.3795 1.0028-6.6485 2.279-6.4027 1.2633 0.24329 1.9442 3.1919 3.3012 14.296 0.94027 7.6941 1.9315 15.452 2.2028 17.239 0.46145 3.0409 0.30423 3.25-2.444 3.25-2.6378 0-2.9417-0.33121-2.982-3.25zm8.5449-14.75c0-18 0-18 2.25-18s2.25 0 2.25 18 0 18-2.25 18-2.25 0-2.25-18zm8 0c0-18 0-18 2.25-18s2.25 0 2.25 18 0 18-2.25 18-2.25 0-2.25-18zm7.3056 4.9982c-0.30338-12.908-0.2893-13.002 1.9444-13 2.2019 0.002 2.25 0.24604 2.25 11.42 0 6.28 0.27314 12.13 0.60699 13 0.45575 1.1877-0.0287 1.5818-1.9444 1.5818h-2.5514l-0.3056-13.002zm7.8956 12.37c-0.39-0.39-0.71-3.5-0.71-6.93 0-4.7551 0.37376-6.3698 1.5818-6.8333 2.7824-1.0677 2.9208-0.73547 2.7682 6.6425-0.1101 5.3194-0.5226 7.3263-1.5488 7.5351-0.76928 0.15651-1.7142-0.031-2.0999-0.41667zm6.29-0.64c-1.1982-0.98456-1.4542-3.4958-1.2724-12.483 0.1766-8.7281-0.0663-11.25-1.0833-11.25-2.2414 0-2.6904 1.2458-0.91649 2.5429 1.4048 1.0272 1.4756 1.5071 0.41134 2.7894-1.57 1.9-4.14 1.1-4.14-1.28 0-4.3382 7.9288-6.9181 9.9062-3.2233 0.5371 1.0036 1.0617 6.7411 1.1658 12.75 0.1974 11.392-0.48818 13.103-4.072 10.158zm5.6184-0.28446c-0.36015-0.93854-0.18098-1.2957 0.45332-0.90371 0.71593 0.44247 0.95036-3.1722 0.73855-11.388l-0.31-12.04 4.8068 0.11139c3.489 0.0809 5.0654 0.59458 5.75 1.8738 0.51876 0.96931 0.9432 6.742 0.9432 12.828v11.066h-2.5-2.5v-12.059c0-7.7847-0.35445-11.84-1-11.441-0.57238 0.35375-1 5.5104-1 12.059 0 11.401-0.008 11.441-2.393 11.441-1.3162 0-2.661-0.69837-2.9886-1.5519zm16.787-0.55577c-1.58-1.73-1.91-3.65-1.91-10.97 0-7.7596 0.27024-9.1354 2.1667-11.031 1.5284-1.5278 2.7068-1.9309 4-1.3682 1.0083 0.43874 2.1708 0.72627 2.5833 0.63895 0.4125-0.0873 0.71379 1.9787 0.66952 4.5912l-0.0805 4.75-1.1695-4.5c-0.73122-2.8136-1.7317-4.5-2.6695-4.5-1.222 0-1.5468 1.9457-1.7528 10.5-0.28096 11.667 0.4646 14.264 3.4266 11.936 1.6719-1.3144 1.7102-1.2878 0.45378 0.3143-1.8102 2.3081-3.4031 2.2086-5.7226-0.35771zm12.036 0.68832c-1.69-1.23-1.95-2.67-1.95-10.89 0-7.9148 0.3138-9.8224 1.905-11.581 1.0477-1.1578 2.7237-2.105 3.7243-2.105 2.3443 0 4.8707 4.9018 4.8707 9.4503 0 3.3901-0.15734 3.5497-3.5 3.5497h-3.5v5.441c0 8.4916 3.2756 8.6454 5.7376 0.26944l1.2376-4.2104-0.44482 3.874c-0.44994 3.9186-2.8779 7.626-4.9942 7.626-0.63463 0-2.0274-0.63872-3.095-1.4194zm4.55-16.5c0-2.155-0.27215-4.6274-0.60478-5.4943-1.12-2.91-2.4-0.52-2.4 4.47 0 3.7253 0.36906 4.941 1.5 4.941 1.0781 0 1.5-1.102 1.5-3.9182zm-9.8421 11.918c0-1.375 0.22698-1.9375 0.50439-1.25s0.27741 1.8125 0 2.5-0.50439 0.125-0.50439-1.25zm-72.143-2.25c0.0104-2.2096 0.29129-2.8144 0.87743-1.8893 0.78629 1.241 0.39992 5.1393-0.50937 5.1393-0.21085 0-0.37648-1.4625-0.36806-3.25zm1.1796-7.25c0.0204-1.65 0.2445-2.2039 0.49804-1.231 0.25354 0.97297 0.23687 2.323-0.0371 3-0.27393 0.67703-0.48137-0.11903-0.46099-1.769zm28.18-16.95c-0.69661-1.8154 0.31521-3.5479 2.072-3.5479 1.516 0 2.84 2.7184 1.9922 4.0902-0.87407 1.4143-3.4451 1.0712-4.0642-0.54235zm-28.255-27.175c0.11931-7.5289 0.15722-7.6512 0.86895-2.8016 0.93522 6.3724 2.6447 9.6438 4.8238 9.2312 3.207-0.60711 2.5725-6.1753-1.7562-15.412-4.1919-8.9453-4.9908-13.736-2.7919-16.743 1.2108-1.6559 2.397-1.8812 7.4807-1.4213 2.0722 0.18746 2.2438 0.68065 2.171 6.2393-0.0831 6.3531-0.35943 6.4168-1.3784 0.31786-0.65566-3.9243-3.0768-7.1881-4.6232-6.2323-1.8648 1.1525-0.7953 6.1692 3.0806 14.45 4.3364 9.2648 5.1813 15.676 2.4286 18.429-1.7834 1.7834-5.9844 2.099-6.9586 0.52287-0.44301-0.7168-1.0945-0.67806-2.059 0.12245-1.1959 0.99247-1.392-0.0292-1.2862-6.7014zm15.781 5.4518c-2.97-5.56-1.67-21.43 1.85-22.58 0.95365-0.31269 1.25 2.4549 1.25 11.673 0 10.005 0.25472 12.083 1.481 12.083 0.81452 0 1.7539-1.2375 2.0875-2.75 0.96261-4.3645 1.2681-4.9143 1.3526-2.4343 0.19571 5.7405-5.5503 8.6141-8.0151 4.0085zm10.6-10.33c0-12.2 0.0527-12.5 2.1928-12.5 2.1238 0 2.2025 0.39356 2.5 12.502l0.30715 12.502-2.5-0.002-2.5-0.002v-12.5zm9.0567 10.277c-2.1684-3.0959-2.1684-17.459 0-20.555 1.9287-2.7536 6.0038-2.9122 7.4081-0.28825 0.56935 1.0638 1.0352 3.9888 1.0352 6.5 0 4.4064-0.10471 4.5657-3 4.5657-2.9697 0-3 0.0556-3 5.5 0 5.6926 1.0881 6.8482 4.0018 4.25 1.1925-1.0634 1.2041-0.98877 0.0776 0.5-1.8162 2.4002-4.6545 2.1946-6.5226-0.47251zm4.44-16.28c0-3.025-0.45-5.5-1-5.5s-1 2.475-1 5.5 0.45 5.5 1 5.5 1-2.475 1-5.5zm6.5 6.0714v-12.429h5.152c6.2563 0 6.315 0.1355 6.3343 14.607l0.0136 10.25h-2.5-2.5v-11.5c0-7.4376-0.37463-11.5-1.0605-11.5-0.70392 0-0.95612 3.8677-0.75 11.502l0.31054 11.502-2.5-0.002-2.5-0.002v-12.429zm15.372 10.775c-0.94-1.13-1.37-4.52-1.37-10.84 0-8.8218 1.0659-12.5 3.6224-12.5 0.48266 0 0.87756 5.3625 0.87756 11.917 0 8.5977 0.34815 12.057 1.25 12.421 0.6875 0.27741 0.2926 0.53991-0.87756 0.58333-1.1702 0.0434-2.7452-0.66521-3.5-1.5747zm11.69-0.56c-1.1-1.57-1.56-4.61-1.56-10.28 0-9.0532 1.5225-12.5 5.5215-12.5 3.0744 0 4.4785 2.6442 4.4785 8.4343 0 4.4064-0.10471 4.5657-3 4.5657-2.9745 0-3 0.0474-3 5.5733 0 4.7691 0.25253 5.5249 1.75 5.2378 0.9625-0.18452 2.2871-1.905 2.9436-3.8233 0.76726-2.2421 1.2137-2.7637 1.25-1.4603 0.0791 2.8417-2.694 6.4725-4.9436 6.4725-1.0376 0-2.5871-1.0001-3.4433-2.2225zm4.44-16.28c0-3.025-0.45-5.5-1-5.5s-1 2.475-1 5.5 0.45 5.5 1 5.5 1-2.475 1-5.5zm-34.805 12c0.0204-1.65 0.2445-2.2039 0.49804-1.231 0.25354 0.97297 0.23687 2.323-0.037 3-0.27398 0.67703-0.48142-0.11903-0.46104-1.769zm26.057-1c0.0111-2.2 0.21589-2.9822 0.45508-1.7383s0.23011 3.0439-0.0202 4c-0.25029 0.95609-0.446-0.0617-0.4349-2.2617zm-0.25834-9.75c-0.003-1.2375-0.60167-3.3911-1.3295-4.7857-1.186-2.2725-1.1335-2.5357 0.50616-2.5357 1.5178 0 1.8295 0.81531 1.8295 4.7857 0 2.6321-0.225 4.7857-0.5 4.7857s-0.50277-1.0125-0.50616-2.25zm-46.337-2.4762c-0.33257-2.0494-0.16645-4.1644 0.36916-4.7 0.63177-0.63177 0.97383 0.67703 0.97383 3.7262 0 5.6574-0.52158 6.0356-1.343 0.97383zm4.0786-11.872c-1.1193-1.1193 0.47193-3.4022 2.3714-3.4022 1.2263 0 1.893 0.70434 1.893 2 0 1.9067-2.8295 2.8371-4.2644 1.4022z"/>
   <path id="path3357" fill="#d59423" d="m388 618.06c-2.475-0.69548-4.4056-1.7588-4.2902-2.363 0.1154-0.60418-1.7971-1.865-4.25-2.8017-6.0028-2.2925-5.8435-4.0087 0.29017-3.1264 2.6125 0.37579 7.9 0.87099 11.75 1.1004l7 0.41721-5.5-0.95654c-3.025-0.52609-8.425-1.4694-12-2.0961-7.1408-1.2519-10.333-2.5279-9.5394-3.8126 0.28412-0.4597 3.7842-0.21266 7.778 0.549 3.9938 0.76165 9.2864 1.3447 11.761 1.2958 4.1564-0.0823 3.9607-0.18703-2.5622-1.3718-8.89-1.6-11.44-2.41-11.44-3.61 0-0.58244 4.1903-0.69586 10.824-0.29298 8.358 0.50763 12.515 0.27865 18.25-1.0052 10.319-2.31 11.687-3.4778 3.8438-3.2792-6.74 0.17-11.92-0.79-11.92-2.22 0-0.46357 3.0375-1.1505 6.75-1.5266 8.5826-0.86937 18.455-3.3493 19.75-4.9613 0.55-0.68447 3.475-3.0829 6.5-5.3298s7.3-6.02 9.5-8.3845l4-4.2992-5.5 4.85c-6.3224 5.5753-16.678 12.532-18.655 12.532-2.773 0-1.1428-1.8976 5.4848-6.3848 3.7564-2.5432 7.9189-5.8325 9.25-7.3095 2.0681-2.2948 1.6928-2.1675-2.5798 0.875-10.418 7.4185-17.268 9.0336-8.5 2.0043 10.693-8.5728 18.523-18.193 20.499-25.185 0.60974-2.1572 0.34613-2.0228-1.9228 0.9804-2.5041 3.3146-9.9214 9.0196-11.727 9.0196-1.566 0-0.87118-1.6311 1.7363-4.0757 4.7508-4.454 16.817-24.527 13.518-22.488-0.45388 0.28051-0.45748-1.3903-0.008-3.713 1.0667-5.5122 1.0043-20.663-0.0957-23.223-0.56509-1.315-0.8835 1.2256-0.92971 7.4181-0.0831 11.132-1.6676 21.229-3.7295 23.765-1.3818 1.6994-1.4439 1.6553-0.96339-0.6834 2.1104-10.271 2.8572-19.901 1.8998-24.5l-1.0408-5-0.11821 6.7008c-0.16916 9.5881-2.7785 20.472-4.4962 18.755-0.26772-0.26772 0.0128-4.0469 0.62341-8.3982 1.3317-9.4902-0.0505-21.295-3.2212-27.51-2.191-4.2947-3.5928-5.4144-2.5109-2.0056 0.98561 3.1054 0.71939 13.721-0.39384 15.704-1.3269 2.3636-1.8022 0.77936-2.474-8.2456-0.58228-7.823-3.3666-17.489-5.0474-17.522-0.60395-0.0118-2.8284-2.4373-4.9431-5.3898-2.1148-2.9526-5.6715-7.1053-7.9038-9.2284-3.0214-2.8735-2.3616-1.7481 2.5815 4.4033 5.7091 7.1045 10.667 14.865 10.667 16.697 0 2.0507-2.711-0.69114-8.468-8.5643-3.6614-5.0073-6.9099-8.8513-7.219-8.5422-0.30906 0.30906 0.64058 1.991 2.1103 3.7377 2.433 2.8915 6.5766 10.054 6.5766 11.369 0 0.29691-0.5625 0.52174-1.25 0.49963-0.6875-0.0221-3.275-2.7832-5.75-6.1356-4.7728-6.4649-11.906-12.715-18.141-15.896-5.8623-2.9907-5.8917-2.3611-0.16571 3.5506 2.9799 3.0766 5.3066 6.3982 5.3066 7.5757 0 1.7896-0.95888 1.3011-6.5422-3.3334-5.6557-4.6945-19.056-12.972-21.606-13.346-0.46829-0.0688-1.1889-0.24979-1.6014-0.40231-0.4125-0.15253-1.4244-0.32189-2.2486-0.37637-0.82425-0.0545-1.4992-0.95441-1.5-1.9998-0.002-2.1124-1.1414-2.4807-10.001-3.2317-3.3-0.27973-6.3593-0.85801-6.7984-1.2851-0.43912-0.42707 2.4859-1.969 6.5-3.4266 19.858-7.2104 38.035-5.8128 52.759 4.0565 3.0465 2.042 7.6235 4.4306 10.171 5.3079 13.009 4.4799 27.346 16.912 32.882 28.512 1.7737 3.7165 3.7673 9.9552 4.4302 13.864 0.66292 3.9086 1.4344 6.4316 1.7144 5.6066 0.58336-1.7186 4.2249 7.4576 6.5404 16.481 1.0941 4.2636 1.4133 9.1556 1.1116 17.037-0.37881 9.8967-0.76369 11.784-3.6695 17.993-1.7854 3.8154-4.3476 8.3811-5.6938 10.146-1.3461 1.7649-2.4479 3.8014-2.4483 4.5256-0.001 2.0507-5.5876 13.358-9.1767 18.575-4.1703 6.0613-11.844 13.481-17.15 16.581-9.9286 5.8015-27.7 8.8853-36.673 6.3639zm9.25-2.3648c-0.6875-0.27741-1.8125-0.27741-2.5 0s-0.125 0.50439 1.25 0.50439 1.9375-0.22698 1.25-0.50439zm-6-1c-0.6875-0.27741-1.8125-0.27741-2.5 0s-0.125 0.50439 1.25 0.50439 1.9375-0.22698 1.25-0.50439zm53.25-37.338c2.1482-2.2 3.6809-4 3.4059-4s-2.2577 1.8-4.4059 4-3.6809 4-3.4059 4 2.2577-1.8 4.4059-4zm7.4257-65.449c-1.2323-9.0807-1.9313-7.7521-1.8588 3.5328 0.0642 9.9942 0.11902 10.25 1.3521 6.3102 0.87462-2.7945 1.0365-5.9391 0.50674-9.843zm-31.93-36.93c0-0.20765-0.7875-0.99515-1.75-1.75-1.5861-1.2439-1.6214-1.2085-0.37756 0.37756 1.3064 1.6658 2.1276 2.1955 2.1276 1.3724zm-3-3.9263c0-0.16711-1.6875-1.8546-3.75-3.75l-3.75-3.4462 3.4462 3.75c3.2 3.5 4.05 4.22 4.05 3.46zm-89.528 140.94c-18.754-9.0544-29.479-21.997-33.518-40.449-0.56398-2.5766-1.9021-6.5771-2.9737-8.89-6.1403-13.253-7.7299-30.704-3.9524-43.388 2.6364-8.8525 8.9788-18.175 16.423-24.139 8.4857-6.799 10.215-5.9013 2.5282 1.3126l-6.4786 6.0803 6-4.9608c6.2922-5.2024 15.492-10.556 16.443-9.5688 0.30643 0.31822-1.0178 1.7652-2.9428 3.2154-1.925 1.4503-6.2 5.2829-9.5 8.517l-6 5.8801 7.5-5.9959c8.0246-6.4153 15.32-11.248 16.98-11.248 2.3388 0 0.61061 1.8629-6.339 6.8331-4.0474 2.8946-8.6599 6.6727-10.25 8.3959l-2.8911 3.133 3-2.2049c8.8055-6.4716 11.454-8.0965 14.096-8.6489 2.7546-0.57575 2.6727-0.41198-1.5965 3.1924-11.34 9.5739-18.44 18.266-20.465 25.052-0.48005 1.609 0.90102 0.67992 4.831-3.25 3.2466-3.2466 6.3818-5.5032 7.6459-5.5032 1.8945 0 1.6389 0.57602-2.2063 4.9716-6.2189 7.1091-10.954 15.353-11.341 19.743-0.18332 2.0817-0.54201 8.51-0.79709 14.285s-0.28498 8.475-0.0664 6c0.78855-8.9307 3.582-22.867 4.9438-24.664 1.3206-1.7427 1.3928-1.7217 1.423 0.41369 0.0175 1.2372-0.67177 6.3265-1.5317 11.31-0.85992 4.983-1.3654 9.5957-1.1233 10.25 0.44642 1.2073 0.64571 0.50079 2.626-9.3095 2.4128-11.953 4.7389-10.657 3.0095 1.6763-1.3887 9.904-0.30842 19.617 2.9834 26.824l1.827 4-0.50523-6.1042c-0.49827-6.0202 1.1301-13.895 2.6758-12.939 0.4227 0.26125 1.0421 4.022 1.3764 8.3571 0.60243 7.8122 3.3476 18.443 6.5036 25.186 0.90098 1.925 1.8208 3.9001 2.044 4.3892 0.2232 0.48905-0.10256 0.575-0.72392 0.19098-3.1782-1.9642 0.37933 5.7094 4.3671 9.4198 2.9946 2.7863 5.0086 6 3.7602 6-0.44736 0-3.9507-1.5146-7.7852-3.3659zm-30.747-54.866c-0.22256-1.7974-0.40925-0.56791-0.41486 2.7321-0.006 3.3 0.17648 4.7706 0.40466 3.2679 0.22817-1.5026 0.23276-4.2026 0.0102-6zm71.977 17.6c-0.38-0.38-0.7-3.49-0.7-6.92 0-4.7551 0.37376-6.3698 1.5818-6.8333 2.7824-1.0677 2.9208-0.73547 2.7682 6.6425-0.1101 5.3194-0.5226 7.3263-1.5488 7.5351-0.76928 0.15651-1.7142-0.031-2.0999-0.41667zm6.3-0.64c-1.1989-0.97367-1.4543-3.4764-1.2724-12.468 0.1766-8.7281-0.0663-11.25-1.0833-11.25-2.2414 0-2.6904 1.2458-0.91649 2.5429 1.4048 1.0272 1.4756 1.5071 0.41134 2.7894-1.57 1.9-4.14 1.1-4.14-1.28 0-4.4272 7.9349-6.9067 9.9648-3.1137 0.56935 1.0638 1.0352 6.4904 1.0352 12.059 0 7.8337 0.28286 9.9548 1.25 9.3738 0.84936-0.51028 0.81011-0.20868-0.12244 0.94098-1.6072 1.9814-3.0507 2.0968-5.1276 0.41016zm22.405-0.82591c-1.57-1.73-1.9-3.65-1.9-10.97 0-7.7596 0.27024-9.1354 2.1667-11.031 1.5284-1.5278 2.7068-1.9309 4-1.3682 1.0083 0.43874 2.1708 0.72627 2.5833 0.63895 0.4125-0.0873 0.71379 1.9787 0.66952 4.5912l-0.0805 4.75-1.1695-4.5c-0.73122-2.8136-1.7317-4.5-2.6695-4.5-1.222 0-1.5468 1.9457-1.7528 10.5-0.28096 11.667 0.4646 14.264 3.4266 11.936 1.6719-1.3144 1.7102-1.2878 0.45378 0.3143-1.8102 2.3081-3.4031 2.2086-5.7226-0.35771zm12.036 0.68832c-1.69-1.23-1.94-2.67-1.94-10.97 0-8.4173 0.25348-9.8063 2.1325-11.685 3.9931-3.9931 8.3675 0.3074 8.3675 8.2261 0 2.5914-0.31849 2.8508-3.5 2.8508h-3.5v5.441c0 8.4253 3.8918 8.5702 5.9363 0.22096l1.0192-4.1619-0.43498 3.874c-0.43967 3.9158-2.8646 7.626-4.9843 7.626-0.63463 0-2.0274-0.63872-3.095-1.4194zm4.3611-17.594c-0.40288-6.682-2.2239-6.8476-2.6045-0.23688-0.24627 4.2776-0.005 5.25 1.3023 5.25 1.2995 0 1.5471-0.95296 1.3023-5.0131zm-83.164 16.513c0.31659-0.825 0.70432-1.5 0.86163-1.5s0.54504 0.675 0.86163 1.5c0.3471 0.90455 0.005 1.5-0.86163 1.5-0.8667 0-1.2087-0.59545-0.86163-1.5zm6.3167-1.25c-0.12056-7.3822-1.2652-16.813-2.1041-17.337-0.54851-0.34223-0.6538-3.3814-0.25275-7.2958 0.55238-5.3916 1.0012-6.6488 2.2853-6.4015 1.2859 0.24764 2.0005 3.5764 3.6592 17.046l2.0612 16.738h-2.802c-2.3791 0-2.8087-0.41499-2.8469-2.75zm8.8395-14.751-0.29459-17.501 2.25 0.001c2.2476 0.001 2.25 0.0204 2.25 17.501 0 16.7-0.0894 17.5-1.9554 17.5-1.8548 0-1.9706-0.90012-2.25-17.501zm7.7054-0.00007c0-17.481 0.002-17.5 2.25-17.499 2.2476 0.00054 2.25 0.0192 2.25 17.501s-0.002 17.5-2.25 17.499c-2.2476-0.00076-2.25-0.0195-2.25-17.501zm7.3072 4.9995c-0.30208-12.295-0.27096-12.502 1.8857-12.5 2.1237 0.002 2.2025 0.39603 2.5 12.504 0.30208 12.295 0.27096 12.502-1.8857 12.5-2.1237-0.002-2.2025-0.39603-2.5-12.504zm21 0.0624-0.30715-12.439 4.8068 0.11133c3.489 0.0808 5.0654 0.59448 5.75 1.8737 0.51876 0.96931 0.9432 6.517 0.9432 12.328v10.566h-2.5-2.5v-11.559c0-7.4514-0.35536-11.339-1-10.941-0.56808 0.35109-1 5.3437-1 11.559 0 10.167-0.13743 10.941-1.9428 10.941-1.8032 0-1.9649-0.89404-2.25-12.439zm22.351 7.4394c0-1.375 0.22698-1.9375 0.50439-1.25s0.27741 1.8125 0 2.5-0.50439 0.125-0.50439-1.25zm-71.926-2c0-1.925 0.2058-2.7125 0.45733-1.75 0.25152 0.9625 0.25152 2.5375 0 3.5-0.25153 0.9625-0.45733 0.175-0.45733-1.75zm0.96295-7.5c0.0204-1.65 0.2445-2.2039 0.49804-1.231 0.25354 0.97297 0.23687 2.323-0.0371 3-0.27393 0.67703-0.48137-0.11903-0.46099-1.769zm28.18-16.95c-0.69661-1.8154 0.31521-3.5479 2.072-3.5479 1.5296 0 2.4575 1.9147 1.8173 3.75-0.59752 1.713-3.2065 1.5774-3.8894-0.20211zm-28.255-27.175c0.11931-7.5289 0.15722-7.6512 0.86895-2.8016 0.93522 6.3724 2.6447 9.6438 4.8238 9.2312 3.1479-0.59592 2.5333-6.0204-1.7632-15.562-5.3571-11.897-5.243-16.671 0.44573-18.659 1.6045-0.56076 1.7528-0.44996 0.75 0.56026-2.1127 2.1284-1.396 6.0013 2.75 14.859 4.3364 9.2648 5.1813 15.676 2.4286 18.429-1.7834 1.7834-5.9844 2.099-6.9586 0.52287-0.44301-0.7168-1.0945-0.67806-2.059 0.12245-1.1959 0.99247-1.392-0.0292-1.2862-6.7014zm15.781 5.4518c-2.97-5.56-1.67-21.43 1.85-22.58 0.95365-0.31269 1.25 2.4549 1.25 11.673 0 10.005 0.25472 12.083 1.481 12.083 0.81452 0 1.7539-1.2375 2.0875-2.75 0.96261-4.3645 1.2681-4.9143 1.3526-2.4343 0.19571 5.7405-5.5503 8.6141-8.0151 4.0085zm10.6-10.33c0-12.2 0.0527-12.5 2.1928-12.5 2.1238 0 2.2025 0.39356 2.5 12.502l0.30715 12.502-2.5-0.002-2.5-0.002v-12.5zm9.0567 10.277c-2.1684-3.0959-2.1684-17.459 0-20.555 1.9287-2.7536 6.0038-2.9122 7.4081-0.28825 0.56935 1.0638 1.0352 3.9888 1.0352 6.5 0 4.4064-0.10471 4.5657-3 4.5657-2.9697 0-3 0.0556-3 5.5 0 5.6926 1.0881 6.8482 4.0018 4.25 1.1925-1.0634 1.2041-0.98877 0.0776 0.5-1.8162 2.4002-4.6545 2.1946-6.5226-0.47251zm4.44-16.28c0-3.025-0.45-5.5-1-5.5s-1 2.475-1 5.5 0.45 5.5 1 5.5 1-2.475 1-5.5zm6.5 6.0714v-12.429h5.152c6.2563 0 6.315 0.1355 6.3343 14.607l0.0136 10.25h-2.5-2.5v-11.5c0-7.4376-0.37463-11.5-1.0605-11.5-0.70392 0-0.95612 3.8677-0.75 11.502l0.31054 11.502-2.5-0.002-2.5-0.002v-12.429zm15.372 10.775c-0.94-1.13-1.37-4.52-1.37-10.84 0-8.8218 1.0659-12.5 3.6224-12.5 0.48266 0 0.87756 5.3625 0.87756 11.917 0 8.5977 0.34815 12.057 1.25 12.421 0.6875 0.27741 0.2926 0.53991-0.87756 0.58333-1.1702 0.0434-2.7452-0.66521-3.5-1.5747zm11.69-0.56c-1.1-1.57-1.56-4.61-1.56-10.28 0-9.0532 1.5225-12.5 5.5215-12.5 3.0744 0 4.4785 2.6442 4.4785 8.4343 0 4.4064-0.10471 4.5657-3 4.5657-2.9745 0-3 0.0474-3 5.5733 0 4.7691 0.25253 5.5249 1.75 5.2378 0.9625-0.18452 2.2871-1.905 2.9436-3.8233 0.76726-2.2421 1.2137-2.7637 1.25-1.4603 0.0791 2.8417-2.694 6.4725-4.9436 6.4725-1.0376 0-2.5871-1.0001-3.4433-2.2225zm4.44-16.28c0-3.025-0.45-5.5-1-5.5s-1 2.475-1 5.5 0.45 5.5 1 5.5 1-2.475 1-5.5zm-34.842 12.5c0-1.375 0.22698-1.9375 0.50439-1.25s0.27741 1.8125 0 2.5-0.50439 0.125-0.50439-1.25zm26.094-1.5c0.0111-2.2 0.21589-2.9822 0.45508-1.7383s0.23011 3.0439-0.0202 4c-0.25027 0.95609-0.44598-0.0617-0.43488-2.2617zm-0.25-10.28c0-1.5276-0.63298-3.6812-1.4066-4.7857-1.2612-1.8006-1.2095-2.0082 0.5-2.0082 1.6099 0 1.9066 0.7448 1.9066 4.7857 0 2.6321-0.225 4.7857-0.5 4.7857s-0.5-1.2499-0.5-2.7775zm-46.343-1.9487c-0.33257-2.0494-0.16645-4.1644 0.36916-4.7 0.63177-0.63177 0.97383 0.67703 0.97383 3.7262 0 5.6574-0.52158 6.0356-1.343 0.97383zm-12.66-5.8c0-1.3927-0.61175-3.9962-1.3594-5.7857-1.2503-2.9924-1.2101-3.2536 0.5-3.2536 1.5983 0 1.8594 0.81245 1.8594 5.7857 0 3.1821-0.225 5.7857-0.5 5.7857s-0.5-1.1394-0.5-2.5321zm17-7.4679c0-1.3333 0.66667-2 2-2s2 0.66667 2 2-0.66667 2-2 2-2-0.66667-2-2z"/>
   <path id="path3355" fill="#4b71a7" d="m387.5 617.65c-1.1-0.26458-2.45-0.92745-3-1.473-0.66159-0.65629 1.5381-0.78899 6.5-0.39213 4.125 0.32992 9.075 0.19106 11-0.30859 2.8416-0.73755 1.7-0.9277-6.0685-1.0108-9.5443-0.1021-19.204-2.1167-20.544-4.2844-0.49979-0.80868 0.41232-0.93058 3.207-0.4286 7.5134 1.3495 18.94 1.7664 22.905 0.83574 3.503-0.82204 2.8505-0.95502-5.2517-1.0703-9.3505-0.13303-22.908-2.5274-24.748-4.3706-0.66771-0.66889 0.32916-0.79681 3-0.38496 2.2 0.33925 8.95 0.80836 15 1.0425 9.3186 0.3606 9.93 0.30056 4-0.3928-8.2961-0.97002-15.18-2.7218-16.017-4.0761-0.76656-1.2403 2.3824-1.223 10.267 0.0566 8.1937 1.3297 23.053-0.97117 27.561-4.2677 1.4642-1.0706 0.48081-1.225-6.0309-0.94626-5.581 0.23886-8.3153-0.067-9.6729-1.082-1.7025-1.2729-1.1-1.4796 6-2.0587 8.703-0.70986 17.343-2.9948 18.893-4.9962 0.55-0.71054 3.475-3.1303 6.5-5.3772s7.3-6.02 9.5-8.3845l4-4.2992-5.5 4.85c-6.3224 5.5752-16.678 12.532-18.655 12.532-2.773 0-1.1428-1.8976 5.4848-6.3848 3.7564-2.5432 7.9189-5.8325 9.25-7.3095 2.0681-2.2948 1.6928-2.1675-2.5798 0.875-10.418 7.4185-17.268 9.0336-8.5 2.0043 10.693-8.5728 18.523-18.193 20.499-25.185 0.60974-2.1572 0.34613-2.0228-1.9228 0.9804-2.5041 3.3146-9.9214 9.0196-11.727 9.0196-1.566 0-0.87118-1.6311 1.7363-4.0757 7.1167-6.6721 15.164-22.677 20.502-40.776 2.4744-8.3893 2.6112-8.3203 6.6462 3.3515 2.4892 7.2004 2.7656 9.3493 2.7656 21.5 0 13.137-0.0868 13.683-3.2273 20.314-1.775 3.7476-4.2416 8.2381-5.4812 9.9791-1.2397 1.741-2.9584 5.2463-3.8194 7.7897-4.0273 11.896-15.595 26.124-26.349 32.407-7.1814 4.1958-16.71 6.5302-26.101 6.3944-4.4119-0.0638-8.9216-0.33248-10.022-0.59707zm57-40.287c2.1482-2.2 3.6809-4 3.4059-4s-2.2577 1.8-4.4059 4-3.6809 4-3.4059 4 2.2577-1.8 4.4059-4zm-117.03 34.634c-18.754-9.0544-29.479-21.997-33.518-40.449-0.56398-2.5766-1.9021-6.5771-2.9737-8.89-6.1403-13.253-7.7299-30.704-3.9524-43.388 2.6364-8.8525 8.9788-18.175 16.423-24.139 8.4857-6.799 10.215-5.9013 2.5282 1.3126l-6.4786 6.0803 6-4.9608c6.2922-5.2024 15.492-10.556 16.443-9.5688 0.30643 0.31822-1.0178 1.7652-2.9428 3.2154-1.925 1.4503-6.2 5.2829-9.5 8.517l-6 5.8801 7.5-5.9959c8.0246-6.4153 15.32-11.248 16.98-11.248 2.3388 0 0.61061 1.8629-6.339 6.8331-4.0474 2.8946-8.6599 6.6727-10.25 8.3959l-2.8911 3.133 3-2.2049c8.8055-6.4716 11.454-8.0965 14.096-8.6489 2.7546-0.57575 2.6727-0.41198-1.5965 3.1924-11.34 9.5739-18.44 18.266-20.465 25.052-0.48005 1.609 0.90102 0.67992 4.831-3.25 3.2466-3.2466 6.3818-5.5032 7.6459-5.5032 1.8945 0 1.6389 0.57602-2.2063 4.9716-6.2189 7.1091-10.954 15.353-11.341 19.743-0.18332 2.0817-0.54201 8.51-0.79709 14.285s-0.28498 8.475-0.0664 6c0.78855-8.9307 3.582-22.867 4.9438-24.664 1.3206-1.7427 1.3928-1.7217 1.423 0.41369 0.0175 1.2372-0.67177 6.3265-1.5317 11.31-0.85992 4.983-1.3654 9.5957-1.1233 10.25 0.44642 1.2073 0.64571 0.50079 2.626-9.3095 2.4128-11.953 4.7389-10.657 3.0095 1.6763-1.3887 9.904-0.30842 19.617 2.9834 26.824l1.827 4-0.50523-6.1042c-0.49827-6.0202 1.1301-13.895 2.6758-12.939 0.4227 0.26125 1.0421 4.022 1.3764 8.3571 0.60243 7.8122 3.3476 18.443 6.5036 25.186 0.90098 1.925 1.8208 3.9001 2.044 4.3892 0.2232 0.48905-0.10256 0.575-0.72392 0.19098-3.1782-1.9642 0.37933 5.7094 4.3671 9.4198 2.9946 2.7863 5.0086 6 3.7602 6-0.44736 0-3.9507-1.5146-7.7852-3.3659zm-30.747-54.866c-0.22256-1.7974-0.40925-0.56791-0.41486 2.7321-0.006 3.3 0.17648 4.7706 0.40466 3.2679 0.22817-1.5026 0.23276-4.2026 0.0102-6zm71.977 17.6c-0.38-0.38-0.7-3.49-0.7-6.92 0-4.7551 0.37376-6.3698 1.5818-6.8333 2.7824-1.0677 2.9208-0.73547 2.7682 6.6425-0.1101 5.3194-0.5226 7.3263-1.5488 7.5351-0.76928 0.15651-1.7142-0.031-2.0999-0.41667zm6.3-0.64c-1.1989-0.97367-1.4543-3.4764-1.2724-12.468 0.1766-8.7281-0.0663-11.25-1.0833-11.25-2.2414 0-2.6904 1.2458-0.91649 2.5429 1.4048 1.0272 1.4756 1.5071 0.41134 2.7894-1.57 1.9-4.14 1.1-4.14-1.28 0-4.4272 7.9349-6.9067 9.9648-3.1137 0.56935 1.0638 1.0352 6.4904 1.0352 12.059 0 7.8337 0.28286 9.9548 1.25 9.3738 0.84936-0.51028 0.81011-0.20868-0.12244 0.94098-1.6072 1.9814-3.0507 2.0968-5.1276 0.41016zm22.405-0.82591c-1.57-1.73-1.9-3.65-1.9-10.97 0-7.7596 0.27024-9.1354 2.1667-11.031 1.5284-1.5278 2.7068-1.9309 4-1.3682 1.0083 0.43874 2.1708 0.72627 2.5833 0.63895 0.4125-0.0873 0.71379 1.9787 0.66952 4.5912l-0.0805 4.75-1.1695-4.5c-0.73122-2.8136-1.7317-4.5-2.6695-4.5-1.222 0-1.5468 1.9457-1.7528 10.5-0.28096 11.667 0.4646 14.264 3.4266 11.936 1.6719-1.3144 1.7102-1.2878 0.45378 0.3143-1.8102 2.3081-3.4031 2.2086-5.7226-0.35771zm12.036 0.68832c-1.69-1.23-1.94-2.67-1.94-10.97 0-8.4173 0.25348-9.8063 2.1325-11.685 3.9931-3.9931 8.3675 0.3074 8.3675 8.2261 0 2.5914-0.31849 2.8508-3.5 2.8508h-3.5v5.441c0 8.4253 3.8918 8.5702 5.9363 0.22096l1.0192-4.1619-0.43498 3.874c-0.43967 3.9158-2.8646 7.626-4.9843 7.626-0.63463 0-2.0274-0.63872-3.095-1.4194zm4.3611-17.594c-0.40288-6.682-2.2239-6.8476-2.6045-0.23688-0.24627 4.2776-0.005 5.25 1.3023 5.25 1.2995 0 1.5471-0.95296 1.3023-5.0131zm-83.164 16.513c0.31659-0.825 0.70432-1.5 0.86163-1.5s0.54504 0.675 0.86163 1.5c0.3471 0.90455 0.005 1.5-0.86163 1.5-0.8667 0-1.2087-0.59545-0.86163-1.5zm6.3167-1.25c-0.12056-7.3822-1.2652-16.813-2.1041-17.337-0.54851-0.34223-0.6538-3.3814-0.25275-7.2958 0.55238-5.3916 1.0012-6.6488 2.2853-6.4015 1.2859 0.24764 2.0005 3.5764 3.6592 17.046l2.0612 16.738h-2.802c-2.3791 0-2.8087-0.41499-2.8469-2.75zm8.8395-14.751-0.29459-17.501 2.25 0.001c2.2476 0.001 2.25 0.0204 2.25 17.501 0 16.7-0.0894 17.5-1.9554 17.5-1.8548 0-1.9706-0.90012-2.25-17.501zm7.7054-0.00007c0-17.481 0.002-17.5 2.25-17.499 2.2476 0.00054 2.25 0.0192 2.25 17.501s-0.002 17.5-2.25 17.499c-2.2476-0.00076-2.25-0.0195-2.25-17.501zm7.3072 4.9995c-0.30208-12.295-0.27096-12.502 1.8857-12.5 2.1237 0.002 2.2025 0.39603 2.5 12.504 0.30208 12.295 0.27096 12.502-1.8857 12.5-2.1237-0.002-2.2025-0.39603-2.5-12.504zm21 0.0624-0.30715-12.439 4.8068 0.11133c3.489 0.0808 5.0654 0.59448 5.75 1.8737 0.51876 0.96931 0.9432 6.517 0.9432 12.328v10.566h-2.5-2.5v-11.559c0-7.4514-0.35536-11.339-1-10.941-0.56808 0.35109-1 5.3437-1 11.559 0 10.167-0.13743 10.941-1.9428 10.941-1.8032 0-1.9649-0.89404-2.25-12.439zm22.351 7.4394c0-1.375 0.22698-1.9375 0.50439-1.25s0.27741 1.8125 0 2.5-0.50439 0.125-0.50439-1.25zm-71.926-2c0-1.925 0.2058-2.7125 0.45733-1.75 0.25152 0.9625 0.25152 2.5375 0 3.5-0.25153 0.9625-0.45733 0.175-0.45733-1.75zm0.96295-7.5c0.0204-1.65 0.2445-2.2039 0.49804-1.231 0.25354 0.97297 0.23687 2.323-0.0371 3-0.27393 0.67703-0.48137-0.11903-0.46099-1.769zm28.18-16.95c-0.69661-1.8154 0.31521-3.5479 2.072-3.5479 1.5296 0 2.4575 1.9147 1.8173 3.75-0.59752 1.713-3.2065 1.5774-3.8894-0.20211zm-28.255-27.175c0.11931-7.5289 0.15722-7.6512 0.86895-2.8016 0.93522 6.3724 2.6447 9.6438 4.8238 9.2312 3.1479-0.59592 2.5333-6.0204-1.7632-15.562-5.3571-11.897-5.243-16.671 0.44573-18.659 1.6045-0.56076 1.7528-0.44996 0.75 0.56026-2.1127 2.1284-1.396 6.0013 2.75 14.859 4.3364 9.2648 5.1813 15.676 2.4286 18.429-1.7834 1.7834-5.9844 2.099-6.9586 0.52287-0.44301-0.7168-1.0945-0.67806-2.059 0.12245-1.1959 0.99247-1.392-0.0292-1.2862-6.7014zm15.781 5.4518c-2.97-5.56-1.67-21.43 1.85-22.58 0.95365-0.31269 1.25 2.4549 1.25 11.673 0 10.005 0.25472 12.083 1.481 12.083 0.81452 0 1.7539-1.2375 2.0875-2.75 0.96261-4.3645 1.2681-4.9143 1.3526-2.4343 0.19571 5.7405-5.5503 8.6141-8.0151 4.0085zm10.6-10.33c0-12.2 0.0527-12.5 2.1928-12.5 2.1238 0 2.2025 0.39356 2.5 12.502l0.30715 12.502-2.5-0.002-2.5-0.002v-12.5zm9.0567 10.277c-2.1684-3.0959-2.1684-17.459 0-20.555 1.9287-2.7536 6.0038-2.9122 7.4081-0.28825 0.56935 1.0638 1.0352 3.9888 1.0352 6.5 0 4.4064-0.10471 4.5657-3 4.5657-2.9697 0-3 0.0556-3 5.5 0 5.6926 1.0881 6.8482 4.0018 4.25 1.1925-1.0634 1.2041-0.98877 0.0776 0.5-1.8162 2.4002-4.6545 2.1946-6.5226-0.47251zm4.44-16.28c0-3.025-0.45-5.5-1-5.5s-1 2.475-1 5.5 0.45 5.5 1 5.5 1-2.475 1-5.5zm6.5 6.0714v-12.429h5.152c6.2563 0 6.315 0.1355 6.3343 14.607l0.0136 10.25h-2.5-2.5v-11.5c0-7.4376-0.37463-11.5-1.0605-11.5-0.70392 0-0.95612 3.8677-0.75 11.502l0.31054 11.502-2.5-0.002-2.5-0.002v-12.429zm15.372 10.775c-0.94-1.13-1.37-4.52-1.37-10.84 0-8.8218 1.0659-12.5 3.6224-12.5 0.48266 0 0.87756 5.3625 0.87756 11.917 0 8.5977 0.34815 12.057 1.25 12.421 0.6875 0.27741 0.2926 0.53991-0.87756 0.58333-1.1702 0.0434-2.7452-0.66521-3.5-1.5747zm11.69-0.56c-1.1-1.57-1.56-4.61-1.56-10.28 0-9.0532 1.5225-12.5 5.5215-12.5 3.0744 0 4.4785 2.6442 4.4785 8.4343 0 4.4064-0.10471 4.5657-3 4.5657-2.9745 0-3 0.0474-3 5.5733 0 4.7691 0.25253 5.5249 1.75 5.2378 0.9625-0.18452 2.2871-1.905 2.9436-3.8233 0.76726-2.2421 1.2137-2.7637 1.25-1.4603 0.0791 2.8417-2.694 6.4725-4.9436 6.4725-1.0376 0-2.5871-1.0001-3.4433-2.2225zm4.44-16.28c0-3.025-0.45-5.5-1-5.5s-1 2.475-1 5.5 0.45 5.5 1 5.5 1-2.475 1-5.5zm-34.842 12.5c0-1.375 0.22698-1.9375 0.50439-1.25s0.27741 1.8125 0 2.5-0.50439 0.125-0.50439-1.25zm26.094-1.5c0.0111-2.2 0.21589-2.9822 0.45508-1.7383s0.23011 3.0439-0.0202 4c-0.25027 0.95609-0.44598-0.0617-0.43488-2.2617zm-0.25-10.28c0-1.5276-0.63298-3.6812-1.4066-4.7857-1.2612-1.8006-1.2095-2.0082 0.5-2.0082 1.6099 0 1.9066 0.7448 1.9066 4.7857 0 2.6321-0.225 4.7857-0.5 4.7857s-0.5-1.2499-0.5-2.7775zm-46.343-1.9487c-0.33257-2.0494-0.16645-4.1644 0.36916-4.7 0.63177-0.63177 0.97383 0.67703 0.97383 3.7262 0 5.6574-0.52158 6.0356-1.343 0.97383zm-12.66-5.8c0-1.3927-0.61175-3.9962-1.3594-5.7857-1.2503-2.9924-1.2101-3.2536 0.5-3.2536 1.5983 0 1.8594 0.81245 1.8594 5.7857 0 3.1821-0.225 5.7857-0.5 5.7857s-0.5-1.1394-0.5-2.5321zm72.532-13.572c-3.6614-5.0073-6.9099-8.8513-7.219-8.5422-0.30906 0.30906 0.64058 1.991 2.1103 3.7377 2.433 2.8915 6.5766 10.054 6.5766 11.369 0 0.29691-0.5625 0.52174-1.25 0.49963-0.6875-0.0221-3.275-2.7832-5.75-6.1356-4.7728-6.4649-11.906-12.715-18.141-15.896-5.8623-2.9907-5.8917-2.3611-0.16571 3.5506 2.9799 3.0766 5.3066 6.3982 5.3066 7.5757 0 1.7928-0.93527 1.3207-6.4472-3.2545-7.0968-5.8906-20.111-13.562-24.495-14.438-1.7346-0.34691-2.7557-1.163-2.68-2.1417 0.15389-1.9895-3.2411-2.9918-10.569-3.1201-3.13-0.0548-5.9338-0.49259-6.2306-0.97281-0.66779-1.0805 12.016-5.7583 19.308-7.1205 17.546-3.278 33.972 1.3172 46.457 12.996 6.8569 6.4143 11.078 12.956 8.8644 13.736-0.90166 0.31795-0.98361 0.82677-0.27138 1.685 0.56119 0.6762 1.711 2.8824 2.5552 4.9028 2.3417 5.6046-0.24315 4.6757-4.837-1.7381-2.1148-2.9526-5.6715-7.1053-7.9038-9.2284-3.0214-2.8735-2.3616-1.7481 2.5815 4.4033 5.7091 7.1045 10.667 14.865 10.667 16.697 0 2.0507-2.711-0.69114-8.468-8.5643zm4.47-9.28c0-0.20765-0.7875-0.99515-1.75-1.75-1.5861-1.2439-1.6214-1.2085-0.37756 0.37756 1.3064 1.6658 2.1276 2.1955 2.1276 1.3724zm-3-3.9263c0-0.16711-1.6875-1.8546-3.75-3.75l-3.75-3.4462 3.4462 3.75c3.2 3.5 4.05 4.22 4.05 3.46zm-57 19.304c0-1.3333 0.66667-2 2-2s2 0.66667 2 2-0.66667 2-2 2-2-0.66667-2-2z"/>
   <path id="path3353" fill="#a31736" d="m387.5 617.65c-1.1-0.26458-2.45-0.92745-3-1.473-0.66159-0.65629 1.5381-0.78899 6.5-0.39213 4.125 0.32992 9.075 0.19106 11-0.30859 2.8416-0.73755 1.7-0.9277-6.0685-1.0108-9.5443-0.1021-19.204-2.1167-20.544-4.2844-0.49979-0.80868 0.41232-0.93058 3.207-0.4286 7.5134 1.3495 18.94 1.7664 22.905 0.83574 3.503-0.82204 2.8505-0.95502-5.2517-1.0703-9.3505-0.13303-22.908-2.5274-24.748-4.3706-0.66771-0.66889 0.32916-0.79681 3-0.38496 2.2 0.33925 8.95 0.80836 15 1.0425 9.3186 0.3606 9.93 0.30056 4-0.3928-8.2961-0.97002-15.18-2.7218-16.017-4.0761-0.76656-1.2403 2.3824-1.223 10.267 0.0566 8.1937 1.3297 23.053-0.97117 27.561-4.2677 1.4642-1.0706 0.48081-1.225-6.0309-0.94626-5.581 0.23886-8.3153-0.067-9.6729-1.082-1.7025-1.2729-1.1-1.4796 6-2.0587 4.3409-0.35406 9.9602-1.2832 12.487-2.0647 5.8087-1.7963 19.538-12.06 24.518-18.329 6.341-7.9819 6.1272-8.0691-1.644-0.67093-6.8821 6.5517-19.047 15.389-21.183 15.389-1.7174 0 0.35862-2.0237 6.0261-5.8742 5.7752-3.9237 13.734-11.519 15.524-14.815 0.54087-0.99606-1.4509 0.46824-4.4261 3.254-5.9027 5.5268-14.601 11.077-15.676 10.002-0.37173-0.37173-0.21861-0.9889 0.34025-1.3715 12.658-8.6653 21.802-19.654 23.878-28.696 0.75771-3.2989 0.54746-3.1416-4.3824 3.2801-2.943 3.8335-8.6494 7.9739-9.6336 6.9897-0.20771-0.20771 1.4686-2.6034 3.7252-5.3237 2.2566-2.7204 5.1639-6.6176 6.4608-8.6606 2.864-4.5119 8.9692-20.07 11.099-28.285 0.85568-3.3 1.8953-6.3795 2.3102-6.8433 0.41494-0.46379 1.7444 1.7862 2.9545 5 7.5245 19.985 6.2669 38.85-3.5637 53.458-1.8826 2.7975-3.4273 5.8286-3.4326 6.7359-0.005 0.90723-1.0605 3.8995-2.3448 6.6495-10.806 23.138-28.962 35.704-51.124 35.384-4.4119-0.0638-8.9216-0.33248-10.022-0.59707zm52.47-35.771c2.6104-1.3499 8.5062-7.7921 10.539-11.516 0.45034-0.825-2.5174 1.6326-6.5949 5.4615-4.0776 3.8288-7.6012 7.0913-7.8304 7.25-1.3215 0.91512 1.4585 0.0597 3.8867-1.1959zm-114.12 28.82c-20.159-10.055-32.003-27.636-32.225-47.836-0.0844-7.6752 0.9949-14.5 2.2931-14.5 0.45603 0 0.60193 3.985 0.32422 8.8556s-0.10872 9.561 0.37554 10.423c0.5607 0.99818 0.9077-1.7641 0.95542-7.6056 0.0774-9.4749 2.5527-20.673 4.5696-20.673 0.68054 0 0.81262 0.84352 0.35229 2.25-0.40502 1.2375-0.87313 7.65-1.0402 14.25l-0.30385 12 0.91249-8.5c0.98575-9.1825 3.5245-22.923 4.3964-23.795 1.5123-1.5123 1.557 1.4118 0.12747 8.3245-1.7242 8.3372-2.1017 18.036-0.735 18.88 0.4698 0.29035 1.1253-2.9456 1.4567-7.191 0.64802-8.3015 2.2685-14.219 3.8939-14.219 0.55504 0 0.7268 0.73585 0.38168 1.6352-0.34512 0.89937-0.90528 5.5487-1.2448 10.332-0.71172 10.027 1.5135 22.454 4.6996 26.246l1.9212 2.2866-0.73127-3.5c-1.1895-5.6933-0.21304-17.315 1.3256-15.776 0.25274 0.25274 0.92579 4.178 1.4957 8.7229 1.0764 8.5846 4.9316 21.854 7.4786 25.741 1.7077 2.6064 1.8883 3.6894 0.46885 2.8121-3.0688-1.8966 0.61689 5.8899 4.4968 9.5 2.5642 2.3859 5.058 6 4.14 6-0.23844 0-4.6418-2.099-9.7852-4.6644zm43.27-36.614c-1.4971-1.4971-1.4378-11.006 0.0781-12.522 2.1734-2.1734 2.6322-1.2783 2.9679 5.7916 0.33329 7.0174-0.63021 9.1462-3.0461 6.7303zm6.8639 0.26935c-0.98301-0.60753-1.3036-3.5182-1.2212-11.089 0.0614-5.6458-0.32635-11.084-0.86164-12.084-0.71502-1.336-0.61899-1.8186 0.36192-1.8186 3.0406 0 3.7352 2.4393 3.7352 13.117 0 7.4435 0.36634 10.839 1.1994 11.116 0.79548 0.26516 0.68074 0.59885-0.34069 0.99081-0.84706 0.32505-2.1399 0.22031-2.873-0.23275zm22.336-0.47807c-3.9252-2.7493-4.0301-19.226-0.14722-23.121 1.1002-1.1035 1.2721 0.62933 1.0132 10.212-0.21185 7.8423 0.0678 11.999 0.87244 12.968 1.5201 1.8316 0.93323 1.8114-1.7384-0.06zm11.669-0.31923c-3.2285-2.6143-4.014-14.009-1.3578-19.697l1.8667-3.9972 0.28452 11.439c0.15746 6.3308 0.77036 12.025 1.3724 12.75 1.5538 1.8722 0.4446 1.6186-2.1658-0.49522zm-78.99-0.26c0-0.58246 0.45-0.7809 1-0.44098s1 0.81648 1 1.059c0 0.24254-0.45 0.44098-1 0.44098s-1-0.47656-1-1.059zm6.5431-3.191c-1.0511-7.7093-2.5268-22.205-2.5196-24.75 0.008-2.8302 1.5418-5.768 2.5073-4.8025 0.58048 0.58047 4.3616 27.893 4.4373 32.052 0.0196 1.0758-0.715 1.75-1.9069 1.75-1.5233 0-2.0629-0.91069-2.5182-4.25zm8.4569-12.75c0-16.333 0.0784-17 2-17s2 0.66667 2 17-0.0784 17-2 17-2-0.66667-2-17zm8 0c0-16.333 0.0784-17 2-17s2 0.66667 2 17-0.0784 17-2 17-2-0.66667-2-17zm7 5c0-11.333 0.11111-12 2-12s2 0.66667 2 12-0.11111 12-2 12-2-0.66667-2-12zm21 0c0-11.333 0.11111-12 2-12s2 0.66667 2 12-0.11111 12-2 12-2-0.66667-2-12zm7 0.5c0-8.5171-0.32423-11.508-1.25-11.53-0.69022-0.0168-0.46276-0.48885 0.50792-1.0541 0.96686-0.56304 2.2044-0.7478 2.75-0.41058 0.56649 0.35011 0.99208 5.7357 0.99208 12.554 0 9.9475-0.25041 11.941-1.5 11.941-1.2464 0-1.5-1.9444-1.5-11.5zm28.079 2.9167c0.048-1.165 0.28494-1.4019 0.60416-0.60417 0.28887 0.72187 0.25335 1.5844-0.0789 1.9167-0.3323 0.33229-0.56864-0.25834-0.52522-1.3125zm-3.58-9.82c0-6.836 0.85325-7.3876 3.102-2.0055 2.1744 5.204 1.8496 8.41-0.85203 8.41-2.0991 0-2.25-0.42946-2.25-6.4045zm-9.8065-1.3455c-0.2968-1.5125-0.12426-3.1775 0.38343-3.7 0.56895-0.58555 0.92307 0.46945 0.92307 2.75 0 4.3791-0.55446 4.7823-1.3065 0.95zm-35.189 0.75792c-0.33723-0.54564-0.21099-1.7107 0.28054-2.589 0.81391-1.4544 1.0427-1.4479 2.5633 0.0727 0.9183 0.9183 1.4139 2.0834 1.1014 2.589-0.75331 1.2189-3.1746 1.1743-3.9453-0.0727zm-7.182-12.609c-0.70746-1.8436 1.711-3.7652 3.0515-2.4247 1.0915 1.0915 0.0897 4.0256-1.3744 4.0256-0.58452 0-1.3392-0.72042-1.6771-1.6009zm-22.07-20.48c2.7807-1.6196 2.1388-7.2678-1.7431-15.339-4.5479-9.4555-5.2068-12.864-3.1065-16.07 2.2208-3.3894 3.349-3.1639 2.8024 0.56006-0.31522 2.1477 0.66779 5.4555 3.2678 10.996 4.5361 9.6663 5.4291 14.91 3.1352 18.411-0.96421 1.4716-2.579 2.5084-3.8788 2.4907-1.9936-0.0272-2.0436-0.1372-0.47695-1.0497zm10.405-0.74864c-2.4325-2.6879-2.3633-18.076 0.095-21.108 1.6883-2.082 1.75-1.7159 1.75 10.39 0 6.9014-0.0428 12.548-0.095 12.547-0.0523-0.00042-0.83976-0.82369-1.75-1.8295zm10.34-10.67c0-11.833 0.10667-12.5 2-12.5s2 0.66667 2 12.5-0.10667 12.5-2 12.5-2-0.66667-2-12.5zm8.8729 10.847c-0.8151-0.98214-1.514-4.7803-1.7218-9.3574-0.27615-6.0809 0.0398-8.4192 1.4995-11.097l1.8494-3.3926 0.28357 11.962c0.19032 8.0283 0.68357 12.216 1.5 12.735 0.86003 0.54649 0.73958 0.77744-0.41113 0.78827-0.89515 0.008-2.2449-0.7286-2.9995-1.6378zm11.13-10.85c0-11.833 0.10667-12.5 2-12.5s2 0.66667 2 12.5-0.10667 12.5-2 12.5-2-0.66667-2-12.5zm6-0.0733c0-11.435 0.15841-12.543 1.75-12.239 1.5196 0.29004 1.8158 1.9457 2.25 12.575 0.49736 12.177 0.48812 12.241-1.75 12.239-2.2139-0.002-2.25-0.2038-2.25-12.575zm9.5714 11.002c-1.2-1.2-1.57-3.75-1.57-10.93 0-7.1732 0.36678-9.7239 1.5714-10.929 0.86428-0.86429 1.6518-1.5714 1.75-1.5714s0.17857 5.625 0.17857 12.5-0.0804 12.5-0.17857 12.5c-0.0982 0-0.88572-0.70714-1.75-1.5714zm11.313-0.0673c-2.2644-2.7284-2.4114-15.249-0.23383-19.907l1.849-3.9547 0.28357 11.962c0.19032 8.0283 0.68357 12.216 1.5 12.735 0.86003 0.54649 0.73958 0.77744-0.41113 0.78827-0.89515 0.008-2.2396-0.72211-2.9876-1.6234zm-73.804-4.6113 0.0805-5.25 1.2259 4.5c1.2678 4.6535 1.1677 6-0.44591 6-0.51754 0-0.90476-2.3625-0.8605-5.25zm39.953-13 0.0333-6.25 1.9667 2.3608c1.2138 1.457 1.9667 3.8496 1.9667 6.25 0 3.2226-0.34283 3.8892-2 3.8892-1.7902 0-1.9965-0.65558-1.9667-6.25zm38 0 0.0333-6.25 1.9667 2.3608c1.2138 1.457 1.9667 3.8496 1.9667 6.25 0 3.2226-0.34283 3.8892-2 3.8892-1.7902 0-1.9965-0.65558-1.9667-6.25zm-9.3125-1c-0.27844-1.7875-0.10451-3.6775 0.3865-4.2 0.53274-0.56691 0.89274 0.74364 0.89274 3.25 0 5.0147-0.57911 5.4448-1.2792 0.95zm-45.899-0.25c-0.64456-2.9965-0.33292-4.3443 0.75331-3.2581 0.31639 0.31638 0.42152 1.8539 0.23363 3.4167l-0.34162 2.8414-0.64532-3zm-13.403-8.9664c-0.81292-3.5038-0.75417-4.5746 0.27264-4.9686 0.97028-0.37234 1.3089 0.78308 1.3089 4.4663 0 2.7327-0.12269 4.9686-0.27264 4.9686s-0.73895-2.0099-1.3089-4.4664zm17.58-3.53c0-1.3333 0.66667-2 2-2s2 0.66667 2 2-0.66667 2-2 2-2-0.66667-2-2zm58.046-3.5462c-4.8324-6.6629-13-15.454-14.359-15.454-0.48836 0 1.3438 2.4419 4.0715 5.4264 4.9409 5.4062 9.7125 13.465 8.5971 14.519-0.32266 0.30502-1.7722-1.0204-3.2212-2.9454-7.7454-10.29-19.663-19.938-26.635-21.562-2.86-0.66638-2.8025-0.55323 1.2307 2.4239 4.3304 3.1965 10.04 10.701 8.9614 11.779-0.33028 0.33028-3.1561-1.6773-6.2797-4.4613-5.5225-4.9221-22.254-14.215-25.551-14.192-0.92743 0.007-1.5786-0.71795-1.5-1.6691 0.17387-2.1041-3.0719-3.0889-10.611-3.2196-3.1625-0.0548-5.75-0.54968-5.75-1.0997 0-0.55 0.14655-1 0.32567-1s3.5616-1.1306 7.5167-2.5124c22.005-7.688 42.149-4.259 57.689 9.8197 6.23 5.6444 10.881 12.652 8.8715 13.367-0.69869 0.24877-0.24478 2.0752 1.249 5.0259 3.5586 7.0291 1.2836 7.3256-3.0868 0.40236-2.7434-4.3458-11.939-13.722-14.973-15.267-1.1502-0.58565 0.66992 1.7992 4.0448 5.2997 6.9617 7.2209 14.733 18.256 14.131 20.064-0.2215 0.66451-2.3459-1.471-4.7208-4.7456zm-0.80428-15.44c-2.7008-3.6726-9.7316-10.014-11.102-10.014-0.32212 0 2.5402 3.15 6.3607 7s7.1099 7 7.3097 7c0.19983 0-0.95574-1.7937-2.5679-3.9859z"/>
   <path id="path3351" fill="#041c54" d="m425 587.95c0-0.22672 2.8125-2.4309 6.25-4.8982 6.6887-4.8009 9.7558-7.8431 14.305-14.19 2.2658-3.1607 1.3019-2.508-4.5939 3.1105-6.8722 6.549-19.036 15.389-21.175 15.389-1.7174 0 0.35862-2.0237 6.0261-5.8742 5.7752-3.9237 13.734-11.519 15.524-14.815 0.54087-0.99606-1.4509 0.46824-4.4261 3.254-5.9027 5.5268-14.601 11.077-15.676 10.002-0.37173-0.37173-0.21861-0.9889 0.34025-1.3715 12.658-8.6653 21.802-19.654 23.878-28.696 0.75771-3.2989 0.54746-3.1416-4.3824 3.2801-2.9361 3.8245-8.6488 7.9745-9.6286 6.9947-0.20499-0.20499 1.6508-2.8257 4.1241-5.8237 2.4732-2.9981 5.5438-7.251 6.8235-9.451 2.6871-4.6196 8.7534-20.303 11.172-28.882 1.9446-6.899 2.3385-6.5789 6.0075 4.8821 7.0723 22.092 2.6716 42.329-12.505 57.506-3.6595 3.6595-7.6458 6.9131-8.8583 7.2302-3.4386 0.89922-2.5961-0.96403 1.6472-3.6427 3.4418-2.1727 8.3006-7.4516 10.671-11.594 0.47214-0.825-2.8877 2.0091-7.4663 6.2981s-10.046 8.6764-12.151 9.75c-3.6331 1.8535-5.9058 2.446-5.9058 1.5397zm-55.878-13.866c-1.4971-1.4971-1.4378-11.006 0.0781-12.522 2.1734-2.1734 2.6322-1.2783 2.9679 5.7916 0.33329 7.0174-0.63021 9.1462-3.0461 6.7303zm6.8639 0.26935c-0.98301-0.60753-1.3036-3.5182-1.2212-11.089 0.0614-5.6458-0.32635-11.084-0.86164-12.084-0.71502-1.336-0.61899-1.8186 0.36192-1.8186 3.0406 0 3.7352 2.4393 3.7352 13.117 0 7.4435 0.36634 10.839 1.1994 11.116 0.79548 0.26516 0.68074 0.59885-0.34069 0.99081-0.84706 0.32505-2.1399 0.22031-2.873-0.23275zm22.336-0.47807c-3.9252-2.7493-4.0301-19.226-0.14722-23.121 1.1002-1.1035 1.2721 0.62933 1.0132 10.212-0.21185 7.8423 0.0678 11.999 0.87244 12.968 1.5201 1.8316 0.93323 1.8114-1.7384-0.06zm11.669-0.31923c-3.2285-2.6143-4.014-14.009-1.3578-19.697l1.8667-3.9972 0.28452 11.439c0.15746 6.3308 0.77036 12.025 1.3724 12.75 1.5538 1.8722 0.4446 1.6186-2.1658-0.49522zm-78.99-0.25c0-0.58246 0.45-0.7809 1-0.44098s1 0.81648 1 1.059c0 0.24254-0.45 0.44098-1 0.44098s-1-0.47656-1-1.059zm6.5431-3.191c-1.0511-7.7093-2.5268-22.205-2.5196-24.75 0.008-2.8302 1.5418-5.768 2.5073-4.8025 0.58048 0.58047 4.3616 27.893 4.4373 32.052 0.0196 1.0758-0.715 1.75-1.9069 1.75-1.5233 0-2.0629-0.91069-2.5182-4.25zm8.4569-12.75c0-16.333 0.0784-17 2-17s2 0.66667 2 17-0.0784 17-2 17-2-0.66667-2-17zm8 0c0-16.333 0.0784-17 2-17s2 0.66667 2 17-0.0784 17-2 17-2-0.66667-2-17zm7 5c0-11.333 0.11111-12 2-12s2 0.66667 2 12-0.11111 12-2 12-2-0.66667-2-12zm21 0c0-11.333 0.11111-12 2-12s2 0.66667 2 12-0.11111 12-2 12-2-0.66667-2-12zm7 0.5c0-8.5171-0.32423-11.508-1.25-11.53-0.69022-0.0168-0.46276-0.48885 0.50792-1.0541 0.96686-0.56304 2.2044-0.7478 2.75-0.41058 0.56649 0.35011 0.99208 5.7357 0.99208 12.554 0 9.9475-0.25041 11.941-1.5 11.941-1.2464 0-1.5-1.9444-1.5-11.5zm28.079 2.9167c0.048-1.165 0.28494-1.4019 0.60416-0.60417 0.28887 0.72187 0.25335 1.5844-0.0789 1.9167-0.3323 0.33229-0.56864-0.25834-0.52522-1.3125zm-3.58-9.82c0-6.836 0.85325-7.3876 3.102-2.0055 2.1744 5.204 1.8496 8.41-0.85203 8.41-2.0991 0-2.25-0.42946-2.25-6.4045zm-9.8065-1.3455c-0.2968-1.5125-0.12426-3.1775 0.38343-3.7 0.56895-0.58555 0.92307 0.46945 0.92307 2.75 0 4.3791-0.55446 4.7823-1.3065 0.95zm-35.189 0.75792c-0.33723-0.54564-0.21099-1.7107 0.28054-2.589 0.81391-1.4544 1.0427-1.4479 2.5633 0.0727 0.9183 0.9183 1.4139 2.0834 1.1014 2.589-0.75331 1.2189-3.1746 1.1743-3.9453-0.0727zm-7.182-12.609c-0.70746-1.8436 1.711-3.7652 3.0515-2.4247 1.0915 1.0915 0.0897 4.0256-1.3744 4.0256-0.58452 0-1.3392-0.72042-1.6771-1.6009zm-22.07-20.48c2.7807-1.6196 2.1388-7.2678-1.7431-15.339-4.5479-9.4555-5.2068-12.864-3.1065-16.07 2.2208-3.3894 3.349-3.1639 2.8024 0.56006-0.31522 2.1477 0.66779 5.4555 3.2678 10.996 4.5361 9.6663 5.4291 14.91 3.1352 18.411-0.96421 1.4716-2.579 2.5084-3.8788 2.4907-1.9936-0.0272-2.0436-0.1372-0.47695-1.0497zm10.405-0.74864c-2.4325-2.6879-2.3633-18.076 0.095-21.108 1.6883-2.082 1.75-1.7159 1.75 10.39 0 6.9014-0.0428 12.548-0.095 12.547-0.0523-0.00042-0.83976-0.82369-1.75-1.8295zm10.34-10.67c0-11.833 0.10667-12.5 2-12.5s2 0.66667 2 12.5-0.10667 12.5-2 12.5-2-0.66667-2-12.5zm8.8729 10.847c-0.8151-0.98214-1.514-4.7803-1.7218-9.3574-0.27615-6.0809 0.0398-8.4192 1.4995-11.097l1.8494-3.3926 0.28357 11.962c0.19032 8.0283 0.68357 12.216 1.5 12.735 0.86003 0.54649 0.73958 0.77744-0.41113 0.78827-0.89515 0.008-2.2449-0.7286-2.9995-1.6378zm11.13-10.85c0-11.833 0.10667-12.5 2-12.5s2 0.66667 2 12.5-0.10667 12.5-2 12.5-2-0.66667-2-12.5zm6-0.0733c0-11.435 0.15841-12.543 1.75-12.239 1.5196 0.29004 1.8158 1.9457 2.25 12.575 0.49736 12.177 0.48812 12.241-1.75 12.239-2.2139-0.002-2.25-0.2038-2.25-12.575zm9.5714 11.002c-1.2-1.2-1.57-3.75-1.57-10.93 0-7.1732 0.36678-9.7239 1.5714-10.929 0.86428-0.86429 1.6518-1.5714 1.75-1.5714s0.17857 5.625 0.17857 12.5-0.0804 12.5-0.17857 12.5c-0.0982 0-0.88572-0.70714-1.75-1.5714zm11.313-0.0673c-2.2644-2.7284-2.4114-15.249-0.23383-19.907l1.849-3.9547 0.28357 11.962c0.19032 8.0283 0.68357 12.216 1.5 12.735 0.86003 0.54649 0.73958 0.77744-0.41113 0.78827-0.89515 0.008-2.2396-0.72211-2.9876-1.6234zm-73.804-4.6113 0.0805-5.25 1.2259 4.5c1.2678 4.6535 1.1677 6-0.44591 6-0.51754 0-0.90476-2.3625-0.8605-5.25zm39.953-13 0.0333-6.25 1.9667 2.3608c1.2138 1.457 1.9667 3.8496 1.9667 6.25 0 3.2226-0.34283 3.8892-2 3.8892-1.7902 0-1.9965-0.65558-1.9667-6.25zm38 0 0.0333-6.25 1.9667 2.3608c1.2138 1.457 1.9667 3.8496 1.9667 6.25 0 3.2226-0.34283 3.8892-2 3.8892-1.7902 0-1.9965-0.65558-1.9667-6.25zm-9.3125-1c-0.27844-1.7875-0.10451-3.6775 0.3865-4.2 0.53274-0.56691 0.89274 0.74364 0.89274 3.25 0 5.0147-0.57911 5.4448-1.2792 0.95zm-45.899-0.25c-0.64456-2.9965-0.33292-4.3443 0.75331-3.2581 0.31639 0.31638 0.42152 1.8539 0.23363 3.4167l-0.34162 2.8414-0.64532-3zm-13.403-8.9664c-0.81292-3.5038-0.75417-4.5746 0.27264-4.9686 0.97028-0.37234 1.3089 0.78308 1.3089 4.4663 0 2.7327-0.12269 4.9686-0.27264 4.9686s-0.73895-2.0099-1.3089-4.4664zm17.58-3.53c0-1.3333 0.66667-2 2-2s2 0.66667 2 2-0.66667 2-2 2-2-0.66667-2-2zm58.046-3.5462c-4.8324-6.6629-13-15.454-14.359-15.454-0.48836 0 1.3438 2.4419 4.0715 5.4264 4.9409 5.4062 9.7125 13.465 8.5971 14.519-0.32266 0.30502-1.7722-1.0204-3.2212-2.9454-7.7454-10.29-19.663-19.938-26.635-21.562-2.86-0.66638-2.8025-0.55323 1.2307 2.4239 4.3304 3.1965 10.04 10.701 8.9614 11.779-0.33028 0.33028-3.1561-1.6773-6.2797-4.4613-5.5225-4.9221-22.254-14.215-25.551-14.192-0.92743 0.007-1.5786-0.71795-1.5-1.6691 0.17387-2.1041-3.0719-3.0889-10.611-3.2196-3.1625-0.0548-5.75-0.54968-5.75-1.0997 0-0.55 0.14655-1 0.32567-1s3.5616-1.1306 7.5167-2.5124c20.655-7.2163 39.806-4.6381 54.924 7.3939 5.6102 4.4648 12.189 12.635 12.175 15.118-0.005 0.825-1.4562-0.29794-3.2252-2.4954-3.9034-4.8487-8.5178-9.2616-11.216-10.727-1.1-0.59718 1.2442 2.3406 5.2094 6.5285 3.9652 4.1878 8.1277 9.4142 9.25 11.614 3.6552 7.1647 1.922 8.0202-2.3947 1.182-2.7434-4.3458-11.939-13.722-14.973-15.267-1.1502-0.58565 0.66992 1.7992 4.0448 5.2997 6.9617 7.2209 14.733 18.256 14.131 20.064-0.2215 0.66451-2.3459-1.471-4.7208-4.7456z"/>
   <path id="path3349" fill="#060606" d="m336.95 564.11c-1.9401-15.605-1.7352-25.868 0.47255-23.66 0.42055 0.42055 4.5768 29.993 4.5768 32.565 0 0.74-0.84938 1.3454-1.8875 1.3454-1.6444 0-2.0517-1.3204-3.1619-10.25zm9.0494-6.75c0-16.333 0.0784-17 2-17s2 0.66667 2 17-0.0784 17-2 17-2-0.66667-2-17zm8 0c0-14.208 0.2389-17 1.4544-17 1.2039 0 1.5053 2.9281 1.75 17.001 0.27189 15.638 0.15527 17.001-1.4544 17-1.598-0.001-1.75-1.478-1.75-17.001zm7 5c0-11.333 0.11111-12 2-12s2 0.66667 2 12-0.11111 12-2 12-2-0.66667-2-12zm7.6667 11.333c-0.37-0.36-0.67-3.05-0.67-5.96 0-4.2747 0.38634-5.5049 2-6.3685 1.9119-1.0232 2-0.76049 2 5.9648 0 5.196-0.34857 7.0352-1.3333 7.0352-0.73334 0-1.6333-0.3-2-0.66667zm6.804-0.38077c-0.35604-0.57609-0.7201-5.9876-0.80902-12.026-0.13659-9.2757 0.071-10.934 1.3383-10.692 1.197 0.22839 1.601 2.658 2 12.028 0.37034 8.6969 0.19116 11.741-0.69098 11.739-0.65504-0.001-1.4823-0.47356-1.8383-1.0496zm6.53-10.95c0-11.333 0.11111-12 2-12s2 0.66667 2 12-0.11111 12-2 12-2-0.66667-2-12zm7 0.5c0-8.5252-0.32335-11.504-1.25-11.515-0.84924-0.0104-0.77984-0.31268 0.21646-0.9428 3.1472-1.9905 4.0335 0.77396 4.0335 12.581 0 9.4467-0.25456 11.378-1.5 11.378-1.2464 0-1.5-1.9444-1.5-11.5zm8.0352 9.5657c-1.6304-3.0465-1.3098-18.32 0.43302-20.625 1.3171-1.7414 1.4715-0.68073 1.5 10.309 0.0175 6.7375-0.17737 12.25-0.43302 12.25s-0.93065-0.87042-1.5-1.9343zm11.978 0.45946c-2.0667-2.5024-2.0761-17.086-0.0131-20.525 1.4512-2.4194 1.5091-2.2986 1.7972 3.75 0.16374 3.4375 0.16374 9.0231 0 12.412-0.27113 5.612-0.43049 6.0017-1.7841 4.3627zm5.0182-16.775c0.0291-5.7133 0.15788-6.0833 1.5-4.3089 2.0092 2.6564 1.9854 10.559-0.0318 10.559-1.1767 0-1.4932-1.347-1.4682-6.25zm-45.356-1.1522c-0.62758-1.6354 0.1099-2.5978 1.9908-2.5978 0.73333 0 1.3333 0.9 1.3333 2 0 2.2738-2.5079 2.7248-3.3241 0.59777zm34.973-0.83052c-0.32113-1.228-0.14861-2.668 0.38337-3.2 0.623-0.623 0.96725 0.17166 0.96725 2.2328 0 3.7395-0.52696 4.1169-1.3506 0.96725zm-41.4-10.5c-2.0174-0.72364-1.4327-3.2817 0.75-3.2817 1.1 0 2 0.64844 2 1.441 0 1.7392-1.0583 2.4476-2.75 1.8407zm-21.729-21.945c2.1561-2.1561 1.5262-5.2291-3.0965-15.106-3.9486-8.4372-4.7758-14.307-2.3569-16.726 1.3768-1.3768 1.5326-1.1944 1.5326 1.7943 0 1.8298 1.6861 6.8774 3.7469 11.217 4.8629 10.24 5.6545 15.483 2.7726 18.365-1.1658 1.1658-2.6017 2.1195-3.191 2.1195-0.58928 0-0.32277-0.74866 0.59226-1.6637zm9.0359-0.55882c-2.0866-2.979-2.1772-17.553-0.12648-20.336 1.2732-1.728 1.4654-0.59558 1.75 10.311 0.17588 6.7385 0.2328 12.251 0.12648 12.25-0.10631-0.001-0.89381-1.002-1.75-2.2244zm20.013 0.89745c-3.4501-2.5228-3.0514-22.675 0.44862-22.675 0.47501 0 1.0026 5.4008 1.1724 12.002 0.16984 6.601 0.28231 12.001 0.24993 12-0.0324-0.001-0.87433-0.59817-1.871-1.327zm25.987-0.89745c-2.0866-2.979-2.1772-17.553-0.12648-20.336 1.2732-1.728 1.4654-0.59558 1.75 10.311 0.17588 6.7385 0.2328 12.251 0.12648 12.25-0.10631-0.001-0.89381-1.002-1.75-2.2244zm12.035 0.9129c-2.3232-1.6988-3.2756-12.486-1.6371-18.541 0.64749-2.393 1.3871-4.1411 1.6435-3.8847 0.25644 0.25644 0.47832 4.8809 0.49306 10.277 0.0147 5.3956 0.46618 10.631 1.0032 11.635 1.1605 2.1684 0.88689 2.2621-1.5027 0.5148zm-74.505-3.9718c0.0761-3.736 0.17823-3.913 0.89257-1.547 0.44363 1.4694 1.0774 3.1098 1.4083 3.6452 0.33093 0.53546-0.0707 1.2316-0.89256 1.547-1.1874 0.45566-1.4766-0.2928-1.4083-3.6452zm26.9-7.72c0-11.333 0.11111-12 2-12s2 0.66667 2 12-0.11111 12-2 12-2-0.66667-2-12zm20 0c0-11.333 0.11111-12 2-12s2 0.66667 2 12-0.11111 12-2 12-2-0.66667-2-12zm6.8105 0.25c-0.1708-6.4625-0.21745-11.918-0.10367-12.124 0.11378-0.20544 0.90128-0.10707 1.75 0.21862 2.2104 0.84821 2.3104 23.655 0.10367 23.655-1.1533 0-1.5012-2.3357-1.75-11.75zm-12.972-6.3046c-0.33036-5.9034-0.29512-6.0006 1.4112-3.8892 2.1666 2.6809 2.4141 9.9438 0.33882 9.9438-1.0222 0-1.5046-1.6688-1.75-6.0546zm38 0c-0.33036-5.9034-0.29512-6.0006 1.4112-3.8892 2.1666 2.6809 2.4141 9.9438 0.33882 9.9438-1.0222 0-1.5046-1.6688-1.75-6.0546zm-10.088-1.4692c-0.26536-1.3881-0.0928-2.7647 0.38342-3.059 0.47624-0.29434 0.86589 0.8414 0.86589 2.5239 0 3.7124-0.59335 3.9666-1.2493 0.53515zm-46.04-0.47513c-0.28751-1.0995-0.115-2.251 0.38337-2.559 0.49837-0.30801 0.90612 0.59154 0.90612 1.999 0 3.064-0.56994 3.3116-1.2895 0.56002zm-13.054-8.7272c-0.33257-2.0494-0.16645-4.1644 0.36916-4.7 0.63177-0.63177 0.97383 0.67703 0.97383 3.7262 0 5.6574-0.52158 6.0356-1.343 0.97383zm17.516-2.933c0.42145-2.1884 3.3271-2.498 3.3271-0.3545 0 0.81746-0.82837 1.6458-1.8408 1.8408-1.3364 0.25736-1.7437-0.14991-1.4863-1.4863zm58.281-3.5438c-4.404-6.1626-12.137-14.5-14.805-15.962-1.0183-0.55787 0.64763 1.9316 3.7021 5.5321 5.7464 6.7738 9.0052 12.065 8.4522 13.724-0.17528 0.52585-2.4602-1.879-5.0777-5.3442-7.0341-9.3122-19.903-18.747-25.569-18.747-2.0204 0-1.6732 0.48405 2.3314 3.25 2.588 1.7875 5.884 5.275 7.3245 7.75s1.9596 4.0053 1.1537 3.4006c-0.80592-0.60468-4.1448-3.2529-7.4198-5.8849-6.0199-4.838-20.517-12.516-23.632-12.516-0.97309 0-1.6328-0.714-1.5529-1.6807 0.17387-2.1041-3.0719-3.0889-10.611-3.2196-3.1625-0.0548-5.75-0.47179-5.75-0.9266s3.7125-2.1423 8.25-3.75c7.5013-2.6578 9.4298-2.9231 21.25-2.9231 11.514 0 13.723 0.28573 19.322 2.5 3.4769 1.375 9.3061 4.75 12.954 7.5 6.7303 5.0741 13.724 13.502 13.002 15.669-0.21788 0.65364-1.935-0.95434-3.8158-3.5733-2.8458-3.9627-11.532-11.596-13.196-11.596-0.25691 0 3.0317 3.5509 7.3079 7.8908 7.4147 7.5251 12.46 15.012 11.684 17.339-0.19804 0.59414-2.4565-1.8577-5.0189-5.4485-4.1492-5.8147-11.56-12.996-15.738-15.251-0.825-0.44525 1.012 1.8408 4.0823 5.0801 6.088 6.4233 10.295 11.797 13.852 17.692 3.5083 5.8153 1.7861 5.4642-2.4801-0.5056z"/>
  </g>
 </g>
</svg>
